<svg width="48" height="44" viewBox="0 0 48 44" fill="none" xmlns="http://www.w3.org/2000/svg">
<path d="M0 11.9606V10.554C0.0438995 10.2075 0.0803212 9.85905 0.134495 9.51346C0.517238 7.07219 1.69318 4.82486 3.48063 3.11861C5.26809 1.41235 7.56759 0.34211 10.024 0.0732002C11.4541 -0.0920503 12.9028 0.0231279 14.2888 0.412265C16.8565 1.14735 18.93 2.60349 20.4693 4.79193C22.1627 7.2008 22.7689 9.88521 22.4074 12.791C22.2083 14.4101 21.6367 15.961 20.7374 17.322C18.9973 19.9821 16.5688 21.6465 13.4519 22.2948C12.9597 22.3966 12.4544 22.4395 11.9575 22.5105H10.5508C10.2706 22.4778 9.99882 22.4507 9.72514 22.4171C8.09513 22.2039 6.53441 21.625 5.15961 20.7237C2.52004 18.987 0.872704 16.5719 0.217637 13.4784C0.110223 12.9722 0.0672503 12.465 0 11.9606ZM20.63 11.2648C20.63 6.10144 16.4091 1.87963 11.2513 1.88336C6.09362 1.8871 1.88953 6.09305 1.88019 11.2498C1.87085 16.4066 6.10483 20.6359 11.2588 20.6303C16.4128 20.6247 20.6253 16.4113 20.6262 11.2648H20.63Z" fill="#62BB38"/>
<path d="M11.3858 17.8151C8.80417 17.831 6.70356 16.3207 5.9171 13.9613C5.73029 13.414 5.96007 12.9021 6.46165 12.7237C6.98097 12.5369 7.48908 12.7854 7.67589 13.342C8.07005 14.5086 8.84434 15.3035 9.9904 15.7294C10.4515 15.8952 10.9407 15.9685 11.4301 15.9452C11.9195 15.9218 12.3995 15.8024 12.8428 15.5935C13.286 15.3846 13.6837 15.0905 14.0132 14.7279C14.3427 14.3653 14.5976 13.9414 14.7633 13.4803C14.8829 13.1431 15.037 12.8498 15.3994 12.7228C15.5574 12.6598 15.7301 12.6434 15.8971 12.6755C16.0641 12.7076 16.2184 12.7869 16.3418 12.904C16.475 13.0106 16.573 13.1549 16.6229 13.318C16.6729 13.4811 16.6726 13.6555 16.622 13.8184C16.1064 15.5632 14.9744 16.7522 13.3062 17.4406C12.6968 17.6899 12.0443 17.8172 11.3858 17.8151Z" fill="#62BB38"/>
<path d="M14.9926 9.37526C14.4962 9.3739 14.0206 9.17539 13.6706 8.8234C13.3205 8.4714 13.1246 7.99476 13.126 7.49833C13.1273 7.0019 13.3259 6.52634 13.6779 6.17628C14.0299 5.82621 14.5065 5.6303 15.0029 5.63166C15.2487 5.63233 15.492 5.68143 15.7188 5.77612C15.9457 5.87081 16.1517 6.00924 16.325 6.18353C16.4983 6.35782 16.6356 6.56455 16.7291 6.7919C16.8225 7.01926 16.8703 7.26278 16.8696 7.50859C16.8689 7.7544 16.8198 7.99767 16.7252 8.22451C16.6305 8.45135 16.492 8.65734 16.3177 8.83067C16.1434 9.00401 15.9367 9.14131 15.7093 9.23475C15.482 9.32819 15.2384 9.37594 14.9926 9.37526Z" fill="#62BB38"/>
<path d="M9.36957 7.51463C9.36585 8.01119 9.16504 8.48592 8.81129 8.83441C8.45755 9.1829 7.97987 9.3766 7.48331 9.37289C7.23744 9.37105 6.99432 9.3208 6.76787 9.22501C6.54142 9.12922 6.33604 8.98975 6.16349 8.81459C5.815 8.46084 5.62134 7.98316 5.62505 7.48661C5.62877 6.99005 5.82958 6.5153 6.18333 6.16681C6.53707 5.81832 7.01476 5.62463 7.51131 5.62835C8.00787 5.63206 8.4826 5.83288 8.83109 6.18662C9.17958 6.54037 9.37328 7.01808 9.36957 7.51463Z" fill="#62BB38"/>
<path d="M25.4922 11.9606V10.554C25.5361 10.2075 25.5725 9.85905 25.6267 9.51346C26.0094 7.07219 27.1853 4.82486 28.9728 3.11861C30.7602 1.41235 33.0598 0.34211 35.5162 0.0732002C36.9463 -0.0920503 38.395 0.0231279 39.781 0.412265C42.3486 1.14735 44.4222 2.60349 45.9615 4.79193C47.6549 7.2008 48.2601 9.88521 47.8996 12.791C47.7005 14.4101 47.1289 15.961 46.2296 17.322C44.4885 19.9821 42.061 21.6465 38.9441 22.2948C38.4509 22.3966 37.9466 22.4395 37.4497 22.5105H36.0439C35.7684 22.4778 35.4919 22.4507 35.2182 22.4171C33.5882 22.2039 32.0275 21.625 30.6527 20.7237C28.0119 18.987 26.3646 16.5719 25.7107 13.4784C25.6061 12.9722 25.5632 12.465 25.4922 11.9606ZM46.1221 11.2648C46.1221 6.10144 41.9012 1.87963 36.7435 1.88336C31.5858 1.8871 27.3817 6.09305 27.3724 11.2498C27.363 16.4066 31.597 20.6359 36.751 20.6303C41.905 20.6247 46.1212 16.4113 46.1221 11.2648Z" fill="#62BB38"/>
<path d="M36.882 17.8152C34.2994 17.8311 32.1997 16.3207 31.4132 13.9614C31.2311 13.414 31.4562 12.9022 31.9578 12.7238C32.4771 12.537 32.9852 12.7854 33.1767 13.3421C33.5709 14.5087 34.3452 15.3036 35.4912 15.7295C35.9523 15.8952 36.4415 15.9685 36.9309 15.9452C37.4203 15.9219 37.9004 15.8024 38.3436 15.5935C38.7868 15.3847 39.1845 15.0906 39.514 14.728C39.8436 14.3654 40.0985 13.9414 40.2641 13.4803C40.3837 13.1431 40.5378 12.8499 40.9002 12.7228C41.058 12.6598 41.2306 12.6434 41.3975 12.6755C41.5644 12.7076 41.7186 12.7869 41.8417 12.904C41.975 13.0106 42.073 13.1548 42.123 13.318C42.173 13.4811 42.1726 13.6555 42.1219 13.8184C41.6063 15.5632 40.4743 16.7522 38.8061 17.4406C38.1955 17.6903 37.5417 17.8176 36.882 17.8152Z" fill="#62BB38"/>
<path d="M40.4887 9.37526C39.9923 9.3739 39.5167 9.17539 39.1667 8.8234C38.8166 8.4714 38.6207 7.99476 38.6221 7.49833C38.6234 7.0019 38.8219 6.52634 39.1739 6.17628C39.5259 5.82621 40.0026 5.6303 40.499 5.63166C40.7448 5.63233 40.9881 5.68143 41.2149 5.77612C41.4418 5.87081 41.6477 6.00924 41.821 6.18353C41.9944 6.35782 42.1317 6.56455 42.2252 6.7919C42.3186 7.01926 42.3664 7.26278 42.3657 7.50859C42.365 7.7544 42.3159 7.99767 42.2212 8.22451C42.1265 8.45135 41.9881 8.65734 41.8138 8.83067C41.6395 9.00401 41.4328 9.14131 41.2054 9.23475C40.9781 9.32819 40.7345 9.37594 40.4887 9.37526Z" fill="#62BB38"/>
<path d="M34.8657 7.51463C34.8619 8.01119 34.6611 8.48592 34.3074 8.83441C33.9536 9.1829 33.476 9.3766 32.9794 9.37289C32.7335 9.37105 32.4904 9.3208 32.264 9.22501C32.0375 9.12922 31.8322 8.98975 31.6596 8.81459C31.3111 8.46084 31.1174 7.98316 31.1211 7.48661C31.1249 6.99005 31.3257 6.5153 31.6794 6.16681C32.0332 5.81832 32.5109 5.62463 33.0074 5.62835C33.504 5.63206 33.9787 5.83288 34.3272 6.18662C34.6757 6.54037 34.8694 7.01808 34.8657 7.51463Z" fill="#62BB38"/>
<path d="M12.7441 33.1594V31.7527C12.789 31.4053 12.8254 31.0578 12.8786 30.7122C13.236 28.2854 14.3978 26.0487 16.1777 24.3608C18.0168 22.5861 20.2155 21.5447 22.7691 21.2701C24.1989 21.1049 25.6472 21.22 27.0329 21.6091C29.6015 22.3442 31.6741 23.8004 33.2134 25.9888C34.9078 28.3977 35.513 31.0821 35.1525 33.9878C34.953 35.6068 34.3814 37.1577 33.4825 38.5188C31.7414 41.179 29.3139 42.8434 26.197 43.4907C25.7048 43.5934 25.2004 43.6364 24.7026 43.7074H23.2959C23.0204 43.6747 22.7448 43.6476 22.4702 43.614C20.8403 43.4004 19.2796 42.8216 17.9047 41.9206C15.2651 40.1839 13.6181 37.7688 12.9636 34.6753C12.859 34.1747 12.8161 33.6637 12.7441 33.1594ZM33.3741 32.4635C33.3741 27.3002 29.1542 23.0784 23.9964 23.0821C18.8387 23.0858 14.6346 27.2918 14.6243 32.4486C14.6141 37.6054 18.849 41.8337 24.0048 41.8337C29.1607 41.8337 33.3741 37.61 33.3741 32.4635Z" fill="#62BB38"/>
<path d="M24.134 39.013C21.5523 39.0298 19.4526 37.5185 18.6662 35.1601C18.484 34.6127 18.7092 34.1009 19.2098 33.9225C19.7291 33.7357 20.2372 33.9841 20.4287 34.5408C20.8229 35.7074 21.5972 36.5023 22.7432 36.9282C23.2043 37.094 23.6935 37.1673 24.1829 37.144C24.6723 37.1206 25.1523 37.0011 25.5956 36.7923C26.0388 36.5834 26.4365 36.2893 26.7661 35.9267C27.0956 35.5641 27.3504 35.1402 27.5161 34.679C27.6357 34.3419 27.7898 34.0486 28.1532 33.9216C28.311 33.8585 28.4836 33.8421 28.6504 33.8742C28.8173 33.9063 28.9715 33.9857 29.0947 34.1028C29.2275 34.2096 29.3252 34.3539 29.3752 34.5169C29.4251 34.68 29.425 34.8542 29.3749 35.0172C28.8593 36.7619 27.7272 37.95 26.0591 38.6394C25.4482 38.8892 24.794 39.0162 24.134 39.013Z" fill="#62BB38"/>
<path d="M27.7407 30.574C27.2442 30.5727 26.7687 30.3742 26.4186 30.0222C26.0686 29.6702 25.8727 29.1935 25.874 28.6971C25.8754 28.2007 26.0739 27.7251 26.4259 27.375C26.7779 27.025 27.2545 26.8291 27.7509 26.8305C27.9967 26.8311 28.24 26.8802 28.4669 26.9749C28.6937 27.0696 28.8997 27.208 29.073 27.3823C29.2463 27.5566 29.3837 27.7633 29.4771 27.9907C29.5706 28.218 29.6183 28.4616 29.6176 28.7074C29.617 28.9532 29.5678 29.1965 29.4732 29.4233C29.3785 29.6501 29.24 29.8561 29.0657 30.0294C28.8915 30.2028 28.6847 30.3401 28.4574 30.4335C28.23 30.527 27.9865 30.5747 27.7407 30.574Z" fill="#62BB38"/>
<path d="M22.1167 28.7134C22.1149 28.9592 22.0646 29.2022 21.9688 29.4286C21.8731 29.655 21.7337 29.8603 21.5586 30.0328C21.3835 30.2053 21.1761 30.3417 20.9483 30.434C20.7205 30.5264 20.4767 30.573 20.2309 30.5711C19.9851 30.5693 19.742 30.5191 19.5156 30.4233C19.2893 30.3275 19.084 30.1881 18.9114 30.013C18.7389 29.8379 18.6026 29.6305 18.5102 29.4027C18.4179 29.1749 18.3713 28.9312 18.3731 28.6853C18.3768 28.1889 18.5776 27.7143 18.9312 27.3659C19.2849 27.0175 19.7625 26.8239 20.2589 26.8276C20.7553 26.8313 21.23 27.032 21.5784 27.3857C21.9268 27.7394 22.1204 28.2169 22.1167 28.7134Z" fill="#62BB38"/>
</svg>
