<svg width="55" height="54" viewBox="0 0 55 54" fill="none" xmlns="http://www.w3.org/2000/svg">
<path d="M0.0116309 23.5151C3.36478 19.3637 6.71723 15.2127 10.069 11.062C10.6597 10.3304 11.0758 10.2648 11.8793 10.774C13.5266 11.8168 15.1612 12.8807 16.8222 13.8992C17.3268 14.2087 17.8695 14.4514 18.4367 14.6212C20.0522 15.0965 21.6815 15.5253 23.3065 15.9488C23.5741 16.0155 23.8542 16.0133 24.1206 15.9424C25.8283 15.4703 27.5264 14.9642 29.233 14.4878C29.5693 14.3928 29.9168 14.3426 30.2662 14.3385C32.5159 14.3248 34.7656 14.3386 37.0152 14.3206C37.3245 14.3141 37.6267 14.2268 37.8918 14.0675C39.6365 12.9824 41.3632 11.8687 43.0983 10.7677C43.8934 10.2627 44.3359 10.3357 44.8981 11.0725C47.8045 14.8435 50.7087 18.6166 53.6109 22.3918C54.1879 23.1424 54.1328 23.6167 53.4045 24.2456C51.862 25.5774 50.311 26.9007 48.7738 28.2399C48.5784 28.4122 48.4188 28.6212 48.3038 28.855C47.2656 31.0027 46.2387 33.1553 45.2231 35.3128C45.135 35.506 45.1255 35.7258 45.1966 35.9258C46.4278 38.5227 44.9192 41.1747 42.0407 41.4457C41.9908 41.4541 41.9418 41.4676 41.8946 41.4859C41.6469 43.977 40.0409 45.1458 38.057 45.2876C38.0104 46.2881 37.6917 47.1996 36.9655 47.9343C36.2392 48.669 35.3467 49.0247 34.2775 49.0596C34.1579 50.7038 33.4306 51.9699 31.868 52.5818C30.3054 53.1937 28.9037 52.7734 27.6588 51.5983C26.58 52.8476 25.2831 53.5622 23.6072 53.162C21.9314 52.7618 21.0294 51.6322 20.7054 49.9585C20.3624 49.9405 20.0162 49.9447 19.6753 49.9023C18.8389 49.8078 18.0603 49.4289 17.4699 48.8289C16.8794 48.229 16.5128 47.4445 16.4316 46.6067C16.4009 46.3315 16.3903 46.1324 16.0081 46.089C13.9342 45.8551 12.5981 44.303 12.632 42.2185C12.632 42.0989 12.632 41.9793 12.632 41.8417C12.3419 41.7676 12.0678 41.7157 11.8052 41.6299C11.2555 41.4394 10.7582 41.1227 10.353 40.7052C9.94786 40.2877 9.64619 39.7811 9.47223 39.226C9.29826 38.6708 9.25682 38.0827 9.35126 37.5086C9.44571 36.9346 9.67339 36.3907 10.016 35.9205C10.2532 35.5955 10.2278 35.4103 10.0023 35.1138C8.60802 33.2612 7.24974 31.3842 5.84066 29.5389C5.5167 29.1154 5.08477 28.7608 4.67612 28.405C3.32315 27.2278 1.95641 26.0686 0.602375 24.8935C0.390941 24.6921 0.189893 24.4801 0 24.2583L0.0116309 23.5151ZM26.3216 44.4883C26.347 44.5106 26.3714 44.5487 26.4 44.5529C28.6655 44.9234 30.1371 47.424 29.1589 49.7404C29.1155 49.8462 29.1356 50.0643 29.2012 50.1035C29.5834 50.3322 29.9687 50.618 30.3901 50.7038C31.0327 50.835 31.6605 50.4349 31.9527 49.8632C32.1093 49.565 32.1683 49.2251 32.1214 48.8915C32.0745 48.558 31.924 48.2476 31.6912 48.0042C31.0189 47.2853 30.3149 46.5982 29.6226 45.8985C29.4987 45.7725 29.3727 45.6507 29.252 45.5226C28.7449 44.9933 28.7068 44.3803 29.1462 43.9346C29.5855 43.4889 30.2281 43.5207 30.7342 44.0236C31.5208 44.8027 32.2957 45.5936 33.0717 46.3833C33.5259 46.8449 34.0648 47.045 34.6989 46.8873C35.964 46.5697 36.3356 45.0801 35.3785 44.0924C34.0457 42.7161 32.6863 41.3674 31.3397 40.0059C31.1351 39.8131 30.9431 39.6072 30.7649 39.3898C30.6154 39.1919 30.541 38.9473 30.5552 38.6996C30.5694 38.452 30.6711 38.2174 30.8421 38.0379C31.0219 37.8543 31.2622 37.7424 31.5183 37.7229C31.7744 37.7034 32.0289 37.7777 32.2343 37.932C32.3714 38.0416 32.4999 38.1616 32.6186 38.2909C34.016 39.7024 35.412 41.114 36.8067 42.5256C37.282 43.0094 37.8283 43.274 38.5122 43.0888C39.7826 42.7447 40.1288 41.2678 39.1643 40.2865C37.0816 38.1691 34.9928 36.0582 32.8981 33.9535C32.6809 33.749 32.4765 33.5311 32.2862 33.3014C32.1245 33.1 32.0454 32.8446 32.0651 32.587C32.0848 32.3295 32.2017 32.0891 32.3921 31.9145C32.5727 31.7452 32.8069 31.6444 33.0541 31.6299C33.3013 31.6154 33.5458 31.6881 33.745 31.8351C33.9088 31.9677 34.0628 32.112 34.2055 32.2671C36.3313 34.4147 38.4571 36.5631 40.5829 38.7122C41.3716 39.5062 42.3689 39.5592 43.0539 38.8626C43.7388 38.166 43.6732 37.2047 42.9004 36.4276C38.8513 32.375 34.798 28.3271 30.7405 24.2837C30.5395 24.1028 30.2856 23.9914 30.0164 23.9661C28.7576 23.8517 27.4925 23.7956 26.2327 23.6823C25.8685 23.6495 25.6716 23.7226 25.4916 24.0603C24.7089 25.493 23.9054 26.9141 23.0811 28.3235C22.2077 29.8173 20.5402 30.5203 18.9374 30.1116C16.5025 29.4902 15.3623 26.8372 16.6084 24.5949C17.8248 22.3992 19.0803 20.2258 20.3137 18.0418C20.4196 17.8607 20.5106 17.6765 20.6376 17.4415C19.6436 17.1715 18.7045 16.9005 17.7528 16.6761C17.6152 16.6443 17.3748 16.7978 17.2626 16.9323C14.2221 20.6186 11.1873 24.3101 8.15809 28.007C8.01729 28.1785 7.88497 28.3553 7.74522 28.5363L11.8242 34.0276C12.9962 33.0971 14.2391 32.8356 15.591 33.3046C16.9673 33.7831 17.7179 34.8354 18.0365 36.2064C20.5943 35.8888 22.4564 37.3931 22.6311 39.9255C25.4514 40.1594 26.6615 42.3234 26.3216 44.4883ZM43.5017 34.0001C44.4429 32.032 45.3586 30.136 46.2404 28.2251C46.3114 28.0705 46.2013 27.7582 46.0753 27.5973C43.2522 23.9837 40.421 20.3758 37.5816 16.7735C37.5034 16.6612 37.3972 16.5713 37.2735 16.5126C37.1498 16.4539 37.013 16.4286 36.8766 16.439C34.7317 16.4506 32.5879 16.4389 30.443 16.4506C30.1636 16.4536 29.8859 16.4942 29.6173 16.5713C27.6598 17.1281 25.7193 17.7538 23.7448 18.2397C22.7402 18.4874 22.1335 18.9935 21.6592 19.904C20.6641 21.818 19.5419 23.6696 18.4896 25.553C18.0471 26.3406 18.1551 27.1283 18.7469 27.6703C19.5388 28.3913 20.7255 28.1753 21.2962 27.1823C22.2405 25.5378 23.1739 23.8874 24.0963 22.2309C24.3959 21.691 24.8003 21.4517 25.4239 21.5004C27.1749 21.6366 28.9277 21.757 30.6823 21.8614C31.2116 21.8932 31.5981 22.107 31.9665 22.4776C35.6485 26.1787 39.3379 29.8717 43.0348 33.5565C43.1703 33.6878 43.3101 33.817 43.5017 34.0001ZM15.574 15.6312L11.297 12.9104L2.53977 23.7586C3.8017 24.8437 5.02231 25.8928 6.27048 26.9642C9.37661 23.1805 12.4478 19.4381 15.574 15.6312ZM47.7745 26.31L51.5031 23.099L43.669 12.9242L39.394 15.6481C42.1942 19.219 44.9595 22.737 47.7745 26.31ZM16.5438 44.0098C16.7026 43.9463 17.0731 43.9039 17.2976 43.6922C18.2694 42.7786 19.2317 41.8501 20.1284 40.8635C20.6906 40.2452 20.5678 39.2754 19.9813 38.7101C19.3948 38.1448 18.4388 38.0887 17.8258 38.6646C16.9041 39.5292 16.0092 40.4227 15.1411 41.3451C14.6795 41.8342 14.6276 42.4567 14.9039 43.0676C15.1802 43.6784 15.6969 43.9812 16.5438 44.0098ZM22.4723 42.065C22.2828 42.1508 21.8879 42.2281 21.637 42.461C20.7001 43.3354 19.7875 44.2395 18.911 45.1743C18.3477 45.7735 18.4187 46.757 18.9851 47.3319C19.5737 47.9279 20.517 48.0327 21.1331 47.4642C22.0859 46.5845 23.008 45.6645 23.8857 44.7117C24.3345 44.2258 24.3822 43.598 24.0826 42.985C23.7978 42.389 23.2981 42.1148 22.4723 42.065ZM27.3369 48.002C27.3369 47.587 27.0521 47.0937 26.4667 46.7973C25.8601 46.4902 25.2513 46.5432 24.7474 46.9794C24.1905 47.4604 23.6697 47.9816 23.189 48.5388C22.7349 49.0681 22.7116 49.7033 23.0355 50.3089C23.3595 50.9144 23.8825 51.1791 24.5568 51.1442C25.5425 51.0933 27.3316 49.2184 27.3422 48.002H27.3369ZM15.9361 36.6531C15.9276 36.1492 15.6471 35.6442 15.0606 35.3594C14.4741 35.0747 13.8442 35.1022 13.3371 35.5458C12.7823 36.0286 12.2616 36.5493 11.7788 37.1041C11.3405 37.6112 11.3065 38.2231 11.604 38.8266C11.9015 39.43 12.4044 39.7031 13.0459 39.7137C14.0496 39.7307 15.9298 37.8187 15.9393 36.6531H15.9361Z" fill="#62BB38"/>
<path d="M41.1575 3.98374C40.9299 4.36274 40.8177 4.67081 40.608 4.88255C38.2726 7.23985 35.9273 9.58833 33.5721 11.928C33.0534 12.4446 32.4341 12.47 31.9841 12.0264C31.5342 11.5828 31.5448 10.9678 32.0667 10.4384C34.4085 8.08678 36.7541 5.739 39.1037 3.39512C39.4753 3.02246 39.9263 2.82979 40.3826 3.10398C40.6949 3.29348 40.8939 3.66826 41.1575 3.98374Z" fill="#62BB38"/>
<path d="M13.996 2.85736C14.3697 3.06909 14.6672 3.17494 14.8662 3.36762C17.2482 5.72845 19.6211 8.09917 21.9847 10.4798C22.4802 10.9784 22.477 11.5839 22.0345 12.0243C21.5919 12.4647 20.9758 12.4478 20.4878 11.9661C18.11 9.60037 15.7378 7.22893 13.3714 4.85187C13.0167 4.49616 12.8421 4.04623 13.1258 3.61324C13.3238 3.30834 13.6858 3.11462 13.996 2.85736Z" fill="#62BB38"/>
<path d="M28.0662 8.27554C28.0662 9.22305 28.0662 10.1706 28.0662 11.1191C28.0662 11.8676 27.6258 12.3504 26.9843 12.3334C26.3618 12.3175 25.9584 11.8496 25.9563 11.117C25.9521 9.22129 25.9521 7.32555 25.9563 5.42983C25.9563 4.7237 26.4009 4.23462 27.015 4.23462C27.629 4.23462 28.0641 4.72264 28.0736 5.43089C28.0715 6.37946 28.0662 7.32698 28.0662 8.27554Z" fill="#62BB38"/>
<path d="M27.0065 1.37349e-06C27.2134 -0.000332875 27.4159 0.0603461 27.5885 0.174464C27.7611 0.288582 27.8963 0.45106 27.977 0.641585C28.0578 0.832111 28.0806 1.04223 28.0426 1.24564C28.0046 1.44906 27.9074 1.63674 27.7633 1.78524C27.6192 1.93373 27.4344 2.03642 27.2322 2.08048C27.0301 2.12454 26.8194 2.10803 26.6265 2.03297C26.4337 1.95792 26.2672 1.82766 26.148 1.65851C26.0288 1.48936 25.9621 1.28881 25.9563 1.08196C25.9532 0.941692 25.978 0.802206 26.0293 0.671619C26.0806 0.541032 26.1573 0.421944 26.255 0.321272C26.3528 0.2206 26.4695 0.140345 26.5985 0.085191C26.7275 0.0300368 26.8662 0.00108971 27.0065 1.37349e-06Z" fill="#62BB38"/>
</svg>
