<svg width="50" height="50" viewBox="0 0 50 50" fill="none" xmlns="http://www.w3.org/2000/svg">
<path d="M0.00106275 46.0635C0.389727 44.7306 0.726532 43.3781 1.17946 42.069C1.87076 40.0853 2.89166 38.2788 4.34889 36.7407C5.39537 35.6288 6.65804 34.7425 8.05938 34.1361C8.64704 33.8822 9.17146 34.0532 9.41191 34.5507C9.65236 35.0482 9.46061 35.6006 8.88539 35.8587C5.83722 37.2247 4.08669 39.7101 2.98806 42.7303C2.57349 43.8704 2.28639 45.0561 1.97753 46.2314C1.78165 46.9766 2.07393 47.3082 2.84505 47.3082H11.9325C12.7617 47.3082 12.8042 47.2564 13.1431 46.5019C13.424 45.88 13.7515 45.2675 14.0759 44.6601C14.2832 44.2663 14.6335 44.1243 15.076 44.1316C16.9831 44.1627 18.8932 44.1108 20.7961 44.2176C24.5387 44.4249 28.0637 43.6994 31.4881 42.1851C36.4194 40.0086 41.4026 37.943 46.361 35.8266C46.5506 35.7457 46.7932 35.6639 46.8854 35.5084C47.0699 35.1975 47.2679 34.8347 47.2761 34.4896C47.2773 34.2843 47.2023 34.0858 47.0656 33.9327C46.9289 33.7795 46.7402 33.6825 46.5361 33.6604C46.0821 33.5931 45.6194 33.6114 45.1721 33.7143C41.8918 34.5735 38.6187 35.4649 35.3457 36.3552C35.1846 36.4126 35.0348 36.4979 34.9031 36.607C34.2999 37.0454 33.7547 37.602 33.0935 37.916C30.5072 39.1508 27.8178 40.1565 25.0559 40.9217C24.8585 40.9858 24.652 41.0173 24.4444 41.015C24.2265 40.9957 24.0218 40.9019 23.8649 40.7494C23.708 40.5968 23.6085 40.3949 23.5831 40.1775C23.523 39.7184 23.8122 39.2986 24.3221 39.1411C25.3275 38.8208 26.3525 38.5545 27.3392 38.1845C28.956 37.5771 30.5521 36.9128 32.1493 36.2567C32.4731 36.1188 32.7804 35.9449 33.0655 35.7385C33.4262 35.4835 33.6656 35.1508 33.4728 34.6709C33.2873 34.2077 32.9463 33.9237 32.4468 33.9527C31.8405 33.9879 31.2372 34.0843 30.6351 34.1683C28.2564 34.501 25.8871 34.928 23.4971 35.1415C21.9611 35.2783 20.3961 35.1114 18.8435 35.0627C18.2683 35.0451 17.693 34.9798 17.1189 34.9269C16.4586 34.8658 16.0928 34.4605 16.1477 33.8656C16.1985 33.3163 16.6494 32.9691 17.2785 33.0137C18.3647 33.0914 19.455 33.1671 20.537 33.2655C22.4731 33.4407 24.3719 33.1153 26.2727 32.8416C28.1735 32.568 30.0774 32.2985 31.9814 32.0405C33.279 31.8643 34.786 32.4416 35.4151 34.3414C36.4257 34.0719 37.4413 33.8045 38.455 33.5298C40.5092 32.9771 42.5631 32.4208 44.6166 31.8611C45.4002 31.6487 46.191 31.5336 46.9859 31.7741C48.2162 32.1451 49.0049 32.9567 49.1977 34.2346C49.3843 35.469 48.9033 36.4629 47.8928 37.1895C47.6827 37.3361 47.4572 37.4591 47.2202 37.5564C42.0242 39.7675 36.8264 41.9765 31.6269 44.1834C29.7831 44.9607 27.9165 45.7494 25.9079 45.9288C24.0133 46.0977 22.1021 46.0915 20.1971 46.1174C18.7554 46.1381 17.3127 46.0946 15.87 46.0645C15.615 46.0593 15.4554 46.1174 15.3517 46.3703C15.189 46.7693 14.9703 47.1455 14.8097 47.5445C14.421 48.5126 13.6603 48.9956 12.6954 49.2402H2.02004C1.53914 48.9292 1.00014 48.6732 0.59904 48.2784C0.304691 47.9902 0.192778 47.5155 0 47.1248L0.00106275 46.0635Z" fill="#62BB38"/>
<path d="M14.0416 15.387V14.8087C14.0416 10.9303 14.0416 7.05229 14.0416 3.17463C14.0416 1.18363 15.2201 0.00103644 17.2007 0C22.1521 0 27.1035 0 32.0549 0C34.0107 0 35.1974 1.18673 35.1974 3.14145C35.1974 7.0357 35.1974 10.9296 35.1974 14.8232V15.387C35.5571 15.387 35.8732 15.387 36.1893 15.387C37.1169 15.3994 37.8673 15.8834 38.1896 16.6991C38.54 17.5842 38.3451 18.3688 37.687 19.0352C35.7405 21.0086 33.7893 22.9778 31.8332 24.9429C29.9821 26.8085 28.1296 28.6724 26.2758 30.5345C25.2113 31.6021 24.0236 31.5958 22.9591 30.5211C19.1761 26.7132 15.3938 22.9039 11.6122 19.0933C10.8919 18.3678 10.6856 17.5241 11.0577 16.6877C11.4588 15.7839 12.1823 15.3714 13.1627 15.387C13.4312 15.3901 13.7017 15.387 14.0416 15.387ZM24.6683 1.92364H17.3603C16.2337 1.92364 15.9653 2.18897 15.9653 3.30314C15.9653 7.58156 15.9653 11.86 15.9653 16.1384C15.9653 16.9582 15.6139 17.3044 14.7941 17.3096C14.3132 17.3096 13.8323 17.2982 13.3524 17.3158C13.1755 17.3414 13.0018 17.3855 12.8342 17.4474C12.9127 17.5945 13.0058 17.7334 13.112 17.862C16.8107 21.5932 20.5097 25.3271 24.2091 29.0638C24.5345 29.3934 24.7159 29.3975 25.0383 29.0638C27.3381 26.7194 29.6587 24.3947 31.9731 22.0627C33.3619 20.6635 34.749 19.2633 36.1344 17.862C36.2401 17.7311 36.3321 17.5898 36.409 17.4402C36.2411 17.3793 36.0675 17.3355 35.8908 17.3096C35.4586 17.2909 35.0254 17.3044 34.5932 17.3033C33.5754 17.3033 33.2769 17.0049 33.2769 15.9881V3.15803C33.2769 2.24285 32.9525 1.92467 32.0259 1.92364H24.6683Z" fill="#62BB38"/>
<path d="M11.8128 33.9796C11.8069 33.7284 11.9002 33.485 12.0724 33.3021C12.2447 33.1192 12.482 33.0115 12.7331 33.0023C12.9925 33.0017 13.2417 33.1033 13.4267 33.285C13.6118 33.4668 13.7178 33.7141 13.7219 33.9734C13.7165 34.2243 13.6134 34.4631 13.4345 34.6391C13.2557 34.815 13.0151 34.9143 12.7642 34.9155C12.6399 34.918 12.5164 34.8956 12.4008 34.8497C12.2853 34.8037 12.1801 34.7351 12.0914 34.6479C12.0028 34.5607 11.9325 34.4567 11.8846 34.3419C11.8368 34.2271 11.8123 34.104 11.8128 33.9796Z" fill="#62BB38"/>
<path d="M21.3078 19.5089C21.1635 19.5103 21.0207 19.4791 20.8901 19.4174C20.7596 19.3557 20.6448 19.2653 20.5543 19.1529C20.4637 19.0405 20.3998 18.909 20.3673 18.7684C20.3348 18.6278 20.3346 18.4816 20.3667 18.3409C20.4208 18.1584 20.4993 17.9841 20.5999 17.8226C22.7281 14.1336 24.8576 10.4459 26.9885 6.75968C27.0411 6.66079 27.0992 6.56493 27.1626 6.47259C27.293 6.27697 27.4914 6.13681 27.7194 6.07934C27.9473 6.02188 28.1885 6.05121 28.396 6.16165C28.611 6.27522 28.7748 6.46614 28.8545 6.69584C28.9341 6.92554 28.9236 7.17692 28.8251 7.39918C28.7717 7.51564 28.7107 7.62848 28.6427 7.73704C26.5138 11.4247 24.3854 15.1127 22.2572 18.801C22.0375 19.1824 21.7794 19.4799 21.3078 19.5089Z" fill="#62BB38"/>
<path d="M20.7939 6.05177C21.5584 6.05397 22.2906 6.35975 22.8296 6.90185C23.3686 7.44395 23.6702 8.17794 23.668 8.94239C23.6658 9.70683 23.36 10.4391 22.8179 10.9781C22.2758 11.5171 21.5418 11.8186 20.7774 11.8164C20.0129 11.8142 19.2806 11.5085 18.7416 10.9664C18.2027 10.4243 17.9011 9.69026 17.9033 8.92581C17.9055 8.16137 18.2113 7.42909 18.7534 6.89011C19.2955 6.35112 20.0295 6.04957 20.7939 6.05177ZM20.7825 7.97746C20.6551 7.97536 20.5287 7.99889 20.4105 8.04661C20.2924 8.09434 20.185 8.1653 20.0948 8.25529C20.0046 8.34529 19.9334 8.45247 19.8855 8.5705C19.8375 8.68853 19.8137 8.81499 19.8155 8.94239C19.8137 9.07063 19.8377 9.19794 19.886 9.31676C19.9343 9.43558 20.0059 9.5435 20.0966 9.63414C20.1873 9.72478 20.2953 9.79629 20.4142 9.84444C20.5331 9.89259 20.6604 9.9164 20.7887 9.91445C20.9169 9.91251 21.0435 9.88485 21.1608 9.83313C21.2782 9.7814 21.384 9.70666 21.4719 9.61331C21.5599 9.51997 21.6282 9.40991 21.6729 9.28968C21.7175 9.16945 21.7376 9.04149 21.7319 8.91336C21.7279 8.66409 21.6261 8.42637 21.4485 8.25134C21.271 8.07632 21.0318 7.97797 20.7825 7.97746Z" fill="#62BB38"/>
<path d="M31.3497 16.6172C31.352 17.1883 31.1846 17.7472 30.8688 18.2231C30.5529 18.6989 30.1029 19.0703 29.5758 19.29C29.0486 19.5097 28.4681 19.568 27.9078 19.4574C27.3475 19.3467 26.8327 19.0722 26.4286 18.6686C26.0246 18.2649 25.7495 17.7504 25.6382 17.1902C25.527 16.6301 25.5846 16.0495 25.8038 15.5221C26.0229 14.9947 26.3938 14.5443 26.8693 14.2279C27.3448 13.9116 27.9036 13.7436 28.4747 13.7453C29.2345 13.7523 29.9612 14.057 30.4988 14.594C31.0364 15.131 31.3419 15.8574 31.3497 16.6172ZM28.4591 17.5832C28.7085 17.58 28.9474 17.4817 29.1267 17.3083C29.3061 17.1349 29.4124 16.8996 29.424 16.6504C29.4241 16.4015 29.3274 16.1625 29.1544 15.9836C28.9814 15.8048 28.7456 15.7002 28.4969 15.692C28.2483 15.6838 28.0061 15.7726 27.8217 15.9396C27.6373 16.1067 27.525 16.3389 27.5087 16.5872C27.5045 16.8447 27.6018 17.0936 27.7797 17.28C27.9575 17.4664 28.2016 17.5753 28.4591 17.5832Z" fill="#62BB38"/>
</svg>
