<svg width="22" height="20" viewBox="0 0 22 20" fill="none" xmlns="http://www.w3.org/2000/svg">
<path d="M21.2525 5.38432C20.8418 6.15795 20.4387 6.93617 20.0195 7.70464C19.2057 9.19571 18.3764 10.6799 17.5667 12.1744C17.3373 12.5936 17.0155 12.7725 16.5453 12.772C13.398 12.7651 10.2511 12.7639 7.10455 12.7685H6.84133C6.87746 13.0105 6.90956 13.2273 6.94569 13.4728H16.2775C16.8727 13.4728 17.2644 13.7452 17.4078 14.2527C17.4466 14.3964 17.4541 14.5468 17.4299 14.6937C17.4056 14.8406 17.3502 14.9806 17.2672 15.1043C17.1843 15.2279 17.0758 15.3323 16.9491 15.4105C16.8224 15.4887 16.6804 15.5388 16.5327 15.5574C16.4228 15.5693 16.3123 15.5753 16.2018 15.5752C13.1432 15.5752 10.0861 15.5752 7.03058 15.5752C6.58039 15.5752 6.1497 15.5081 5.76489 15.2546C5.23442 14.9053 4.95456 14.4012 4.86165 13.7836C4.43422 10.9483 4.00715 8.11296 3.58048 5.27765C3.47783 4.59463 3.3746 3.91161 3.2794 3.22744C3.2599 3.08464 3.19624 3.01812 3.06377 2.96708C2.28956 2.6723 1.51995 2.36549 0.747465 2.0667C0.442944 1.94914 0.205517 1.76161 0.0839382 1.4525C-0.0749174 1.04704 -0.0078229 0.671414 0.281214 0.352555C0.570251 0.0336972 0.947604 -0.0832985 1.35593 0.06122C2.07106 0.315274 2.77531 0.600872 3.48357 0.873278C3.62579 0.927759 3.76571 0.987975 3.90851 1.03787C4.77677 1.35042 5.24473 1.97208 5.35542 2.88277C5.41277 3.34844 5.49249 3.81125 5.56532 4.29642H5.84002C10.6126 4.29642 15.3849 4.29546 20.1571 4.29355C20.5322 4.29355 20.8602 4.37613 21.0781 4.70187C21.1561 4.81657 21.1928 4.96109 21.2502 5.09184L21.2525 5.38432Z" fill="white"/>
<path d="M9.59332 18.1266C9.59136 18.5286 9.43068 18.9135 9.14626 19.1976C8.86185 19.4817 8.47672 19.6419 8.07473 19.6435C7.67272 19.6398 7.2883 19.478 7.00472 19.1931C6.72114 18.9081 6.56121 18.5229 6.55957 18.1208C6.56317 17.7189 6.72454 17.3344 7.00891 17.0502C7.29328 16.7661 7.67789 16.605 8.07988 16.6017C8.48199 16.6058 8.86631 16.7681 9.14958 17.0535C9.43286 17.3389 9.59228 17.7245 9.59332 18.1266Z" fill="white"/>
<path d="M12.6481 18.095C12.6733 17.2577 13.3541 16.5902 14.1707 16.604C15.012 16.6166 15.7191 17.3386 15.6836 18.1524C15.6497 19 14.9472 19.675 14.1352 19.6434C13.2778 19.6039 12.624 18.9249 12.6481 18.095Z" fill="white"/>
</svg>
