<svg width="29" height="29" viewBox="0 0 29 29" fill="none" xmlns="http://www.w3.org/2000/svg">
<path d="M5.06353 0C5.15223 0.0196749 5.24061 0.0399967 5.32931 0.0583815C5.77151 0.148692 6.15727 0.352542 6.49852 0.643472C6.54255 0.682623 6.58098 0.727663 6.6127 0.777322C7.93253 2.7719 9.25182 4.7668 10.5706 6.76203C10.7896 7.09328 10.9199 7.45194 10.8976 7.85414C10.8763 8.24119 10.7173 8.55567 10.4067 8.79273C9.67069 9.35395 9.004 9.98227 8.51826 10.7799C8.12347 11.4285 7.88801 12.1275 8.07315 12.8851C8.17765 13.3128 8.35924 13.7308 8.56244 14.1243C9.81518 16.5463 11.6266 18.457 13.9447 19.8816C14.6017 20.2855 15.3016 20.6235 15.9973 20.9599C16.5708 21.2369 17.1558 21.1534 17.7022 20.8631C17.947 20.7301 18.1716 20.5631 18.3696 20.3671C18.9011 19.8423 19.4298 19.3123 19.9249 18.7544C20.3764 18.2428 21.2547 18.0315 21.9388 18.3257C22.1074 18.3961 22.2693 18.4815 22.4226 18.5808C24.3565 19.8648 26.2883 21.1522 28.218 22.4432C28.3286 22.518 28.4247 22.6123 28.5015 22.7216C29.0891 23.5624 29.2156 24.5085 28.5631 25.419C28.4034 25.6415 28.2483 25.8686 28.0735 26.0789C26.9123 27.4745 25.4738 28.4283 23.6847 28.8131C22.2042 29.1314 20.7496 28.9743 19.3036 28.5731C18.2276 28.2754 17.2684 27.74 16.3189 27.1813C13.7805 25.693 11.4022 23.9472 9.22139 21.9717C6.56818 19.5646 4.27107 16.8652 2.48807 13.7469C1.54335 12.0942 0.772481 10.3645 0.217714 8.54277C0.112244 8.19668 0.0909466 7.82513 0.0306318 7.46517C0.0209556 7.40776 0.0103213 7.35034 0 7.29293V6.29306C0.0123365 6.25296 0.0216048 6.212 0.027734 6.1705C0.160298 4.52555 0.747646 3.06509 1.87944 1.85879C2.6316 1.05728 3.4302 0.292861 4.5478 0.00354352L5.06353 0Z" fill="white"/>
</svg>
