<svg width="65" height="66" viewBox="0 0 65 66" fill="none" xmlns="http://www.w3.org/2000/svg">
<path d="M58.6724 50.9378V49.8806C58.6724 43.3078 58.8034 36.7317 58.6419 30.164C58.3665 18.946 53.1246 10.7653 42.9468 6.04182C31.0301 0.512686 16.3159 5.47922 9.8145 16.9658C7.50659 21.0221 6.30281 25.6128 6.3233 30.2796C6.31083 36.8257 6.31083 43.3707 6.3233 49.9146V50.9004C3.26383 51.3865 0.182256 48.9032 0.0666759 45.8013C-0.0404055 42.9118 0.000337627 40.0223 0.0581276 37.1328C0.0887222 35.5844 0.823038 34.296 2.01453 33.3203C2.21386 33.1702 2.37098 32.9712 2.47074 32.7425C2.57051 32.5138 2.60954 32.2632 2.58395 32.015C2.48876 28.6037 2.6876 25.2162 3.65473 21.9204C6.0904 13.6072 11.0876 7.30299 18.7991 3.39367C32.1197 -3.34396 47.2929 0.172769 56.4017 11.9721C60.2515 16.9607 62.2045 22.6802 62.4067 28.9844C62.4359 29.4939 62.4387 30.0044 62.4152 30.5142C62.3183 31.8739 62.4152 33.0382 63.6441 34.0308C64.618 34.8229 64.9614 36.1215 64.9665 37.42C64.9665 40.1107 65.0073 42.803 64.9563 45.4936C64.8968 48.7554 62.0565 51.2404 58.6724 50.9378Z" fill="white"/>
<path d="M10.2236 41.4059C10.2236 38.5164 10.2236 35.6269 10.2236 32.7374C10.2236 30.0485 12.1409 28.0564 14.6769 28.0768C17.1857 28.0972 19.0604 30.062 19.0638 32.717C19.074 38.5521 19.0638 44.3888 19.0723 50.2239C19.0723 51.7826 18.5114 53.0489 17.2469 53.9514C16.7828 54.2913 16.793 54.5939 17.0259 55.0205C17.8927 56.6115 19.2151 57.5004 21.027 57.6449C21.168 57.6568 21.3108 57.6449 21.4519 57.6551C22.5839 57.7978 23.3318 57.5293 23.9912 56.382C25.2762 54.1502 28.0926 53.2987 30.4501 54.1196C33.0082 55.012 34.5209 57.3049 34.3476 60.038C34.1929 62.5042 32.3079 64.6272 29.8416 65.1371C27.2649 65.6623 24.729 64.4776 23.5919 62.1439C23.3233 61.5932 23.0105 61.4131 22.4292 61.442C20.8315 61.5168 19.2576 61.4012 17.7789 60.7043C15.3585 59.5604 13.8049 57.6874 13.0197 55.1378C12.8899 54.7582 12.6466 54.4277 12.3228 54.191C10.963 53.2477 10.2135 52.0103 10.2254 50.3378V41.4143L10.2236 41.4059Z" fill="white"/>
<path d="M54.7627 41.4042C54.7627 44.4637 54.7967 47.5232 54.7508 50.5742C54.7248 51.6473 54.301 52.6726 53.5616 53.4509C52.8223 54.2292 51.8201 54.705 50.7497 54.786C48.4636 54.956 46.4359 53.4738 46.0075 51.2931C45.9514 50.987 45.9241 50.6763 45.926 50.3651C45.926 44.4161 45.9124 38.4672 45.926 32.5318C45.926 30.2899 47.3469 28.6225 49.565 28.1619C50.5467 27.9697 51.5647 28.1237 52.4455 28.5979C53.3263 29.0721 54.0155 29.8371 54.3956 30.7624C54.6366 31.3939 54.757 32.065 54.7508 32.7409C54.7882 35.6304 54.7661 38.5199 54.7661 41.4094L54.7627 41.4042Z" fill="white"/>
<path d="M39.8087 24.8033H35.2195C34.8507 24.8033 34.4819 24.8152 34.1147 24.8033C32.5272 24.7234 31.6808 23.2973 32.4593 21.9138C34.2881 18.6571 36.1561 15.421 38.0274 12.1881C38.2682 11.7715 38.5702 11.3933 38.9232 11.0663C39.7254 10.3286 40.6603 10.0057 41.7379 10.4153C42.226 10.5805 42.6548 10.8853 42.9711 11.292C43.2875 11.6987 43.4775 12.1894 43.5175 12.7031C43.6297 13.7705 43.6246 14.8515 43.6365 15.9325C43.6518 17.1223 43.6246 18.3121 43.6212 19.5019C43.6212 20.2889 43.4054 21.086 44.6189 21.3495C45.3243 21.5025 45.6149 22.3183 45.5384 23.0934C45.4585 23.899 45.0285 24.5041 44.2348 24.6962C43.6739 24.8322 43.5039 25.0939 43.5549 25.631C43.594 26.0526 43.5549 26.4809 43.5549 26.9058C43.543 28.4679 42.8903 29.3143 41.6852 29.3194C40.4801 29.3245 39.7969 28.4492 39.8003 26.8413C39.8105 26.2022 39.8087 25.5749 39.8087 24.8033ZM39.773 20.9721V16.9439L39.6235 16.9065L37.3255 20.9721H39.773Z" fill="white"/>
<path d="M26.5705 25.5035C28.0288 25.5035 29.3223 25.4848 30.6141 25.5035C31.0439 25.4948 31.4637 25.6345 31.8025 25.8991C32.1414 26.1637 32.3787 26.537 32.4745 26.9561C32.5703 27.3752 32.5188 27.8146 32.3286 28.2002C32.1383 28.5857 31.8209 28.8939 31.43 29.0728C31.1742 29.1895 30.897 29.252 30.6158 29.2564C28.153 29.27 25.6867 29.2564 23.2289 29.2649C22.3655 29.2649 21.6703 28.9657 21.2538 28.1924C20.8153 27.3748 21.0091 26.6031 21.5309 25.8876C23.1643 23.6474 24.8232 21.4259 26.4243 19.1619C26.9906 18.3529 27.4816 17.4938 27.8912 16.5953C28.3433 15.6146 27.8504 14.5557 26.8799 14.1511C26.4281 13.9696 25.9245 13.9656 25.4699 14.1399C25.0153 14.3143 24.6435 14.654 24.4289 15.091C24.3274 15.3237 24.2377 15.5614 24.1603 15.8032C23.7779 16.8094 22.8465 17.3007 21.8555 17.0186C21.398 16.8947 21.006 16.5989 20.7614 16.1928C20.5169 15.7867 20.4387 15.3018 20.5433 14.8395C20.97 12.7285 22.2345 11.2701 24.2504 10.5613C26.4073 9.80498 28.3994 10.2401 30.0787 11.797C32.0996 13.6667 32.4804 16.4186 30.9167 19.0973C29.7524 21.0944 28.3331 22.9437 27.026 24.8575C26.9155 25.0292 26.7982 25.1856 26.5705 25.5035Z" fill="white"/>
</svg>
