<svg width="18" height="21" viewBox="0 0 18 21" fill="none" xmlns="http://www.w3.org/2000/svg">
<path d="M8.91244 20.1943H0.86375C0.175299 20.1943 -0.0187315 19.9974 0.00139018 19.3241C0.117809 15.7172 2.85581 12.497 6.38573 11.9638C7.59375 11.7813 8.84346 11.8711 10.0745 11.8474C13.4377 11.7827 16.341 14.0522 17.3413 16.982C17.6072 17.761 17.697 18.6076 17.8048 19.4318C17.8767 19.9629 17.6065 20.1936 17.0632 20.1943C14.3472 20.1953 11.6303 20.1953 8.91244 20.1943Z" fill="#2E2E2E"/>
<path d="M14.2408 5.32077C14.299 8.23555 11.7924 10.6523 8.90494 10.6487C6.04334 10.6487 3.56334 8.24561 3.56837 5.30855C3.5734 2.57056 5.82846 0.00647984 8.8999 1.21384e-05C11.9922 -0.00645556 14.304 2.57272 14.2408 5.32077Z" fill="#2E2E2E"/>
</svg>
