<svg width="330" height="313" viewBox="0 0 330 313" fill="none" xmlns="http://www.w3.org/2000/svg">
<path d="M279.504 313.314C279.496 306.033 280.912 298.823 283.669 292.098C286.426 285.373 290.47 279.266 295.568 274.129C300.62 268.953 306.639 264.847 313.275 262.05C319.911 259.253 327.03 257.82 334.219 257.836V273.681C329.092 273.672 324.014 274.695 319.282 276.692C314.551 278.69 310.259 281.62 306.659 285.314C303.007 288.979 300.111 293.341 298.137 298.148C296.164 302.954 295.153 308.109 295.163 313.314H279.504Z" fill="#F2F5F6"/>
<path d="M256.217 313.313C256.196 302.928 258.203 292.641 262.124 283.043C266.044 273.446 271.8 264.727 279.061 257.387C286.31 250.031 294.925 244.199 304.41 240.226C313.895 236.252 324.063 234.216 334.329 234.234V250.08C326.106 250.07 317.963 251.712 310.373 254.912C302.783 258.113 295.897 262.807 290.115 268.722C284.281 274.582 279.649 281.552 276.488 289.23C273.326 296.909 271.696 305.144 271.692 313.462L256.217 313.313Z" fill="#F2F5F6"/>
<path d="M232.897 313.313C232.861 299.865 235.446 286.541 240.504 274.104C245.562 261.667 252.993 250.362 262.373 240.834C271.764 231.277 282.931 223.695 295.23 218.525C307.529 213.355 320.718 210.698 334.037 210.708V226.554C322.78 226.55 311.633 228.797 301.238 233.167C290.843 237.538 281.403 243.945 273.463 252.019C265.502 260.062 259.19 269.617 254.891 280.136C250.591 290.655 248.388 301.93 248.409 313.313H232.897Z" fill="#F2F5F6"/>
<path d="M209.608 313.313C209.597 296.752 212.813 280.35 219.072 265.047C225.331 249.744 234.51 235.84 246.085 224.13C257.641 212.391 271.377 203.08 286.502 196.733C301.628 190.385 317.844 187.127 334.219 187.145V202.991C319.915 202.966 305.748 205.809 292.537 211.358C279.326 216.906 267.332 225.049 257.249 235.315C247.105 245.545 239.058 257.701 233.569 271.086C228.081 284.471 225.26 298.822 225.268 313.313H209.608Z" fill="#F2F5F6"/>
<path d="M186.327 313.314C186.313 293.645 190.137 274.167 197.579 255.996C205.021 237.826 215.935 221.321 229.694 207.428C243.401 193.504 259.692 182.46 277.63 174.929C295.569 167.398 314.802 163.529 334.224 163.544V179.427C316.859 179.402 299.661 182.851 283.619 189.576C267.577 196.301 253.007 206.169 240.748 218.613C228.443 231.038 218.685 245.8 212.034 262.052C205.382 278.303 201.968 295.724 201.986 313.314H186.327Z" fill="#F2F5F6"/>
<path d="M163.039 313.313C162.991 290.559 167.398 268.02 176.005 246.998C184.611 225.977 197.248 206.889 213.186 190.836C229.056 174.711 247.918 161.917 268.689 153.19C289.461 144.462 311.731 139.973 334.222 139.981V155.864C313.788 155.844 293.552 159.912 274.677 167.833C255.802 175.755 238.661 187.373 224.239 202.021C209.78 216.624 198.314 233.972 190.499 253.071C182.684 272.169 178.674 292.642 178.699 313.313H163.039Z" fill="#F2F5F6"/>
<path d="M139.752 313.313C139.705 287.462 144.711 261.857 154.48 237.971C164.25 214.085 178.591 192.389 196.678 174.133C214.72 155.824 236.158 141.3 259.762 131.395C283.365 121.491 308.669 116.401 334.221 116.417V132.263C310.724 132.243 287.454 136.92 265.747 146.025C244.041 155.13 224.325 168.483 207.731 185.318C191.124 202.126 177.955 222.081 168.977 244.044C160 266.007 155.39 289.546 155.411 313.313H139.752Z" fill="#F2F5F6"/>
<path d="M116.465 313.314C116.408 284.354 122.018 255.67 132.97 228.915C143.923 202.161 160.002 177.865 180.281 157.43C200.467 136.93 224.46 120.671 250.879 109.589C277.297 98.5065 305.621 92.8194 334.22 92.8544V108.7C307.674 108.671 281.384 113.953 256.862 124.242C232.341 134.53 210.071 149.623 191.334 168.652C172.535 187.63 157.627 210.18 147.466 235.005C137.305 259.831 132.091 286.443 132.124 313.314H116.465Z" fill="#F2F5F6"/>
<path d="M93.1781 313.313C93.1243 281.257 99.3337 249.507 111.449 219.888C123.564 190.27 141.347 163.366 163.774 140.726C186.145 118.061 212.715 100.084 241.963 87.8262C271.211 75.5681 302.562 69.2695 334.219 69.2908V85.1364C304.591 85.1397 275.256 91.0703 247.901 102.588C220.547 114.105 195.712 130.982 174.827 152.247C153.876 173.405 137.262 198.541 125.938 226.213C114.613 253.885 108.802 283.549 108.837 313.5L93.1781 313.313Z" fill="#F2F5F6"/>
<path d="M69.8948 313.313C69.8428 278.177 76.6514 243.377 89.9298 210.912C103.208 178.447 122.695 148.957 147.27 124.135C171.803 99.2725 200.947 79.5574 233.029 66.1213C265.112 52.6852 299.5 45.7926 334.222 45.8391V61.6847C301.546 61.6588 269.186 68.1635 239 80.8254C208.815 93.4874 181.398 112.058 158.323 135.47C135.224 158.832 116.907 186.576 104.42 217.112C91.9327 247.649 85.522 280.378 85.554 313.425L69.8948 313.313Z" fill="#F2F5F6"/>
<path d="M46.7524 313.313C46.6868 275.066 54.1018 237.183 68.5703 201.848C83.0388 166.513 104.275 134.425 131.054 107.432C157.736 80.3775 189.433 58.9184 224.328 44.2862C259.223 29.6539 296.63 22.1364 334.402 22.1644V38.01C298.681 37.9778 263.306 45.085 230.306 58.9243C197.307 72.7637 167.334 93.0625 142.108 118.655C116.79 144.175 96.7155 174.515 83.0434 207.924C69.3713 241.334 62.3717 277.153 62.4485 313.313H46.7524Z" fill="#F2F5F6"/>
<path d="M23.2826 313.314C23.2184 271.969 31.2325 231.02 46.8636 192.82C62.4947 154.621 85.4343 119.926 114.364 90.7295C143.217 61.4907 177.49 38.302 215.217 22.4927C252.945 6.68343 293.385 -1.43581 334.219 -1.39905V14.4466C295.441 14.4043 257.037 22.1129 221.211 37.1295C185.386 52.1461 152.844 74.1752 125.454 101.952C97.9761 129.672 76.1867 162.617 61.3394 198.891C46.4922 235.165 38.8802 274.051 38.9418 313.314H23.2826Z" fill="#F2F5F6"/>
<path d="M0.000315081 313.313C-0.06005 268.889 8.55398 224.891 25.348 183.845C42.142 142.8 66.7848 105.517 97.8608 74.1377C128.863 42.6732 165.704 17.7175 206.266 0.704243C246.829 -16.309 290.314 -25.0442 334.223 -24.9998V-9.11689C292.374 -9.16555 250.928 -0.843979 212.268 15.3697C173.608 31.5834 138.496 55.3694 108.951 85.3602C79.3217 115.26 55.8258 150.792 39.8153 189.912C23.8048 229.033 15.5957 270.971 15.6595 313.313H0.000315081Z" fill="#F2F5F6"/>
<path d="M302.791 313.313C302.845 304.931 306.138 296.902 311.965 290.943C317.822 284.985 325.768 281.608 334.073 281.548V297.393C329.927 297.42 325.957 299.093 323.019 302.054C320.08 305.017 318.423 309.04 318.413 313.239L302.791 313.313Z" fill="#F2F5F6"/>
</svg>
