<svg width="16" height="19" viewBox="0 0 16 19" fill="none" xmlns="http://www.w3.org/2000/svg">
<path d="M0.125 5.12109V4.21875C0.125 3.57031 0.265625 2.98047 0.546875 2.44922C0.828125 1.91797 1.24219 1.49219 1.78906 1.17188C2.33594 0.851563 3.00781 0.691406 3.80469 0.691406C4.625 0.691406 5.30859 0.851563 5.85547 1.17188C6.41016 1.49219 6.82422 1.91797 7.09766 2.44922C7.37891 2.98047 7.51953 3.57031 7.51953 4.21875V5.12109C7.51953 5.75391 7.37891 6.33594 7.09766 6.86719C6.82422 7.39844 6.41406 7.82422 5.86719 8.14453C5.32031 8.46484 4.64453 8.625 3.83984 8.625C3.02734 8.625 2.34375 8.46484 1.78906 8.14453C1.24219 7.82422 0.828125 7.39844 0.546875 6.86719C0.265625 6.33594 0.125 5.75391 0.125 5.12109ZM2.36328 4.21875V5.12109C2.36328 5.39453 2.41406 5.65625 2.51562 5.90625C2.625 6.14844 2.78906 6.34766 3.00781 6.50391C3.23438 6.65234 3.50781 6.72656 3.82812 6.72656C4.16406 6.72656 4.4375 6.65234 4.64844 6.50391C4.85938 6.34766 5.01562 6.14844 5.11719 5.90625C5.21875 5.65625 5.26953 5.39453 5.26953 5.12109V4.21875C5.26953 3.92969 5.21484 3.66406 5.10547 3.42188C5.00391 3.17188 4.84375 2.97266 4.625 2.82422C4.41406 2.66797 4.14062 2.58984 3.80469 2.58984C3.49219 2.58984 3.22656 2.66797 3.00781 2.82422C2.78906 2.97266 2.625 3.17188 2.51562 3.42188C2.41406 3.66406 2.36328 3.92969 2.36328 4.21875ZM8.28125 14.7188V13.8164C8.28125 13.1758 8.42188 12.5898 8.70312 12.0586C8.99219 11.5273 9.41016 11.1016 9.95703 10.7812C10.5117 10.4609 11.1914 10.3008 11.9961 10.3008C12.8086 10.3008 13.4883 10.4609 14.0352 10.7812C14.582 11.1016 14.9961 11.5273 15.2773 12.0586C15.5586 12.5898 15.6992 13.1758 15.6992 13.8164V14.7188C15.6992 15.3594 15.5586 15.9453 15.2773 16.4766C15.0039 17.0078 14.5938 17.4336 14.0469 17.7539C13.5 18.0742 12.8242 18.2344 12.0195 18.2344C11.207 18.2344 10.5234 18.0742 9.96875 17.7539C9.41406 17.4336 8.99219 17.0078 8.70312 16.4766C8.42188 15.9453 8.28125 15.3594 8.28125 14.7188ZM10.5312 13.8164V14.7188C10.5312 15 10.5938 15.2656 10.7188 15.5156C10.8438 15.7656 11.0156 15.9648 11.2344 16.1133C11.4609 16.2617 11.7227 16.3359 12.0195 16.3359C12.3945 16.3359 12.6875 16.2617 12.8984 16.1133C13.1094 15.9648 13.2539 15.7656 13.332 15.5156C13.418 15.2656 13.4609 15 13.4609 14.7188V13.8164C13.4609 13.5352 13.4062 13.2734 13.2969 13.0312C13.1875 12.7812 13.0234 12.582 12.8047 12.4336C12.5938 12.2773 12.3242 12.1992 11.9961 12.1992C11.668 12.1992 11.3945 12.2773 11.1758 12.4336C10.9648 12.582 10.8047 12.7812 10.6953 13.0312C10.5859 13.2734 10.5312 13.5352 10.5312 13.8164ZM12.8281 3.375L4.49609 16.7109L2.85547 15.8438L11.1875 2.50781L12.8281 3.375Z" fill="white"/>
</svg>
