<svg width="19" height="26" viewBox="0 0 19 26" fill="none" xmlns="http://www.w3.org/2000/svg">
<path d="M12.2776 0.33313C12.5157 0.449459 12.6742 0.616538 12.6742 0.902286C12.6742 2.39426 13.1661 3.73946 13.9796 4.96209C14.7604 6.13318 15.6129 7.259 16.4171 8.41604C17.5678 10.0704 18.4345 11.8513 18.785 13.8546C19.0817 15.5566 19.1161 17.2492 18.6008 18.92C18.14 20.4424 17.3028 21.8239 16.1664 22.9369C14.9633 24.12 13.4666 24.9612 11.8304 25.374C10.1943 25.7868 8.4777 25.7563 6.85725 25.2856C5.23681 24.8149 3.77102 23.9209 2.61066 22.6958C1.45029 21.4707 0.637242 19.9585 0.25516 18.3149C0.0520329 17.4469 -0.0304707 16.5549 0.00999938 15.6644C0.0584047 14.5581 0.173953 13.4611 0.497956 12.397C0.858654 11.2142 1.38642 10.1266 2.32955 9.28578C2.47642 9.15325 2.633 9.03189 2.79799 8.92273C3.21646 8.64791 3.58498 8.81187 3.71302 9.29358C3.83903 9.81265 3.99385 10.3243 4.17677 10.8262C4.45393 11.5437 4.87241 12.1776 5.53603 12.6031C5.77025 12.7546 6.04507 12.849 6.31676 12.9763C6.35736 12.1362 6.39484 11.3547 6.43387 10.5724C6.58377 7.48385 7.64791 4.76144 9.6903 2.42784C10.3665 1.64012 11.1359 0.937506 11.9817 0.335474L12.2776 0.33313ZM10.2259 15.6722C9.65828 16.3592 9.2437 17.0712 9.12034 17.9043C9.02041 18.5866 8.99622 19.2815 8.95562 19.9709C8.92673 20.458 8.68784 20.6735 8.20222 20.6079C7.63151 20.5299 7.21382 20.2246 6.90075 19.7569C6.82268 19.6437 6.75474 19.5274 6.65246 19.3666C6.24726 20.6829 6.14341 21.925 6.87262 23.1141C7.95861 24.8801 10.3078 25.144 11.7257 23.6434C12.579 22.744 12.8023 21.6565 12.5985 20.4557C12.455 19.6501 12.1403 18.8846 11.6757 18.2111C11.1409 17.4077 10.5225 16.659 10.2259 15.6722Z" fill="white"/>
</svg>
