<svg width="207" height="40" viewBox="0 0 207 40" fill="none" xmlns="http://www.w3.org/2000/svg">
<path d="M55.5325 30.2284L56.6299 34.2373L57.7234 30.2284H59.2559V35.7716H58.0786V34.2716L58.1864 31.9607L57.025 35.7716H56.2269L55.0655 31.9607L55.1733 34.2716V35.7716H54V30.2284H55.5325Z" fill="#2E2E2E"/>
<path d="M63.0472 34.6371H61.4469L61.1356 35.7716H59.8944L61.7103 30.2284H62.7838L64.6116 35.7716H63.3585L63.0472 34.6371ZM61.7023 33.7043H62.7878L62.245 31.7284L61.7023 33.7043Z" fill="#2E2E2E"/>
<path d="M68.4308 31.1612H66.3436V35.7716H65.1703V30.2284H68.4308V31.1612Z" fill="#2E2E2E"/>
<path d="M71.1086 34.6371H69.5083L69.197 35.7716H67.9559L69.7717 30.2284H70.8452L72.673 35.7716H71.4199L71.1086 34.6371ZM69.7637 33.7043H70.8492L70.3065 31.7284L69.7637 33.7043Z" fill="#2E2E2E"/>
<path d="M75.5464 31.7551C75.5464 31.552 75.4866 31.3896 75.3668 31.2678C75.2498 31.1459 75.0901 31.085 74.8879 31.085C74.7097 31.085 74.5634 31.1447 74.449 31.264C74.3372 31.3807 74.2813 31.5368 74.2813 31.7322H73.108C73.108 31.4251 73.1852 31.1523 73.3395 30.9137C73.4965 30.6726 73.712 30.486 73.986 30.3541C74.2601 30.2221 74.5607 30.1561 74.8879 30.1561C75.4653 30.1561 75.9149 30.2944 76.2368 30.5711C76.5614 30.8452 76.7237 31.2322 76.7237 31.7322C76.7237 31.986 76.6559 32.2183 76.5202 32.4289C76.3872 32.6371 76.2036 32.802 75.9695 32.9239C76.2355 33.0305 76.4404 33.1929 76.584 33.4112C76.7277 33.6269 76.7995 33.8959 76.7995 34.2183C76.7995 34.7183 76.6253 35.1142 76.2767 35.4061C75.9282 35.698 75.4653 35.8439 74.8879 35.8439C74.5368 35.8439 74.2188 35.7792 73.9341 35.6497C73.6521 35.5203 73.4313 35.335 73.2717 35.0939C73.1147 34.8528 73.0362 34.566 73.0362 34.2335H74.2135C74.2135 34.4239 74.276 34.5863 74.4011 34.7208C74.5261 34.8553 74.6884 34.9226 74.8879 34.9226C75.1114 34.9226 75.2897 34.8553 75.4227 34.7208C75.5557 34.5863 75.6223 34.4124 75.6223 34.1992C75.6223 33.9124 75.5651 33.7069 75.4506 33.5825C75.3362 33.4581 75.17 33.3959 74.9518 33.3959H74.3572V32.4937H74.9558C75.3495 32.4911 75.5464 32.2449 75.5464 31.7551Z" fill="#2E2E2E"/>
<path d="M80.495 30.2284H81.6683V35.7716H80.495V32.1015L78.783 35.7716H77.6057V30.2284H78.783V33.9023L80.495 30.2284Z" fill="#2E2E2E"/>
<path d="M86.6808 35.7716H85.5115V33.3997H83.7795V35.7716H82.6062V30.2284H83.7795V32.4708H85.5115V30.2284H86.6808V35.7716Z" fill="#2E2E2E"/>
<path d="M93.5889 35.7716H92.4156V31.1612H90.6916V35.7716H89.5183V30.2284H93.5889V35.7716Z" fill="#2E2E2E"/>
<path d="M95.712 33.8223V35.7716H94.5387V30.2284H96.5182C97.0929 30.2284 97.5505 30.3985 97.891 30.7386C98.2342 31.0787 98.4058 31.5203 98.4058 32.0635C98.4058 32.6066 98.2369 33.0355 97.899 33.3503C97.5611 33.665 97.0929 33.8223 96.4942 33.8223H95.712ZM95.712 32.8896H96.5182C96.7417 32.8896 96.9146 32.8198 97.037 32.6802C97.1594 32.5406 97.2206 32.3376 97.2206 32.0711C97.2206 31.7944 97.158 31.5749 97.033 31.4124C96.9079 31.2475 96.7403 31.1637 96.5302 31.1612H95.712V32.8896Z" fill="#2E2E2E"/>
<path d="M103.283 33.4987C103.283 34.2424 103.098 34.8198 102.728 35.231C102.361 35.6421 101.85 35.8477 101.195 35.8477C100.544 35.8477 100.031 35.6447 99.659 35.2386C99.2865 34.8299 99.0976 34.2589 99.0923 33.5254V32.5774C99.0923 31.816 99.2772 31.2221 99.647 30.7957C100.017 30.3668 100.53 30.1523 101.187 30.1523C101.834 30.1523 102.343 30.3629 102.716 30.7843C103.088 31.203 103.277 31.7919 103.283 32.5508V33.4987ZM102.105 32.5698C102.105 32.0698 102.031 31.698 101.882 31.4543C101.733 31.2107 101.501 31.0888 101.187 31.0888C100.876 31.0888 100.646 31.2069 100.497 31.4429C100.348 31.6764 100.271 32.033 100.266 32.5127V33.4987C100.266 33.9835 100.341 34.3414 100.493 34.5723C100.645 34.8008 100.879 34.915 101.195 34.915C101.501 34.915 101.729 34.8033 101.878 34.5799C102.027 34.3541 102.103 34.0051 102.105 33.533V32.5698Z" fill="#2E2E2E"/>
<path d="M107.194 30.7234C107.814 30.7234 108.312 30.9391 108.69 31.3706C109.071 31.7995 109.261 32.3528 109.261 33.0305C109.261 33.6904 109.072 34.2322 108.694 34.6561C108.316 35.0799 107.816 35.2919 107.194 35.2919V36H106.068V35.2919C105.645 35.2919 105.278 35.198 104.967 35.0102C104.658 34.8198 104.417 34.5533 104.244 34.2107C104.071 33.8655 103.985 33.4746 103.985 33.0381C103.985 32.3604 104.175 31.8058 104.556 31.3744C104.936 30.9404 105.44 30.7234 106.068 30.7234V30H107.194V30.7234ZM106.008 31.6789C105.724 31.6789 105.499 31.7995 105.334 32.0406C105.172 32.2817 105.09 32.6142 105.09 33.0381C105.09 33.434 105.172 33.7487 105.334 33.9822C105.499 34.2157 105.726 34.3325 106.016 34.3325H106.068V31.6789H106.008ZM107.194 31.6789V34.3325H107.253C107.53 34.3325 107.75 34.2157 107.912 33.9822C108.074 33.7462 108.155 33.4289 108.155 33.0305C108.155 32.6117 108.074 32.2817 107.912 32.0406C107.752 31.7995 107.529 31.6789 107.242 31.6789H107.194Z" fill="#2E2E2E"/>
<path d="M113.04 33.3731H111.212V34.8426H113.375V35.7716H110.039V30.2284H113.367V31.1612H111.212V32.4708H113.04V33.3731Z" fill="#2E2E2E"/>
<path d="M117.993 33.9251C117.964 34.5571 117.777 35.0355 117.434 35.3604C117.091 35.6853 116.607 35.8477 115.981 35.8477C115.324 35.8477 114.82 35.6421 114.469 35.231C114.12 34.8173 113.946 34.2284 113.946 33.4645V32.5317C113.946 31.7703 114.127 31.184 114.489 30.7728C114.851 30.3591 115.354 30.1523 115.997 30.1523C116.631 30.1523 117.111 30.3211 117.438 30.6586C117.768 30.9962 117.956 31.481 118.001 32.1129H116.823C116.813 31.7221 116.749 31.453 116.632 31.3058C116.517 31.1561 116.306 31.0812 115.997 31.0812C115.683 31.0812 115.461 31.1865 115.331 31.3972C115.201 31.6053 115.131 31.9492 115.123 32.4289V33.4759C115.123 34.0266 115.187 34.4048 115.315 34.6104C115.445 34.816 115.667 34.9188 115.981 34.9188C116.29 34.9188 116.503 34.8477 116.62 34.7056C116.737 34.5609 116.804 34.3008 116.819 33.9251H117.993Z" fill="#2E2E2E"/>
<path d="M122.654 33.9251C122.625 34.5571 122.439 35.0355 122.095 35.3604C121.752 35.6853 121.268 35.8477 120.643 35.8477C119.986 35.8477 119.481 35.6421 119.13 35.231C118.782 34.8173 118.607 34.2284 118.607 33.4645V32.5317C118.607 31.7703 118.788 31.184 119.15 30.7728C119.512 30.3591 120.015 30.1523 120.659 30.1523C121.292 30.1523 121.772 30.3211 122.099 30.6586C122.429 30.9962 122.617 31.481 122.662 32.1129H121.485C121.474 31.7221 121.41 31.453 121.293 31.3058C121.179 31.1561 120.967 31.0812 120.659 31.0812C120.345 31.0812 120.123 31.1865 119.992 31.3972C119.862 31.6053 119.793 31.9492 119.785 32.4289V33.4759C119.785 34.0266 119.849 34.4048 119.976 34.6104C120.107 34.816 120.329 34.9188 120.643 34.9188C120.951 34.9188 121.164 34.8477 121.281 34.7056C121.398 34.5609 121.465 34.3008 121.481 33.9251H122.654Z" fill="#2E2E2E"/>
<path d="M126.222 30.2284H127.395V35.7716H126.222V32.1015L124.51 35.7716H123.332V30.2284H124.51V33.9023L126.222 30.2284Z" fill="#2E2E2E"/>
<path d="M132.424 33.4987C132.424 34.2424 132.239 34.8198 131.869 35.231C131.502 35.6421 130.991 35.8477 130.336 35.8477C129.685 35.8477 129.172 35.6447 128.8 35.2386C128.427 34.8299 128.239 34.2589 128.233 33.5254V32.5774C128.233 31.816 128.418 31.2221 128.788 30.7957C129.158 30.3668 129.671 30.1523 130.328 30.1523C130.975 30.1523 131.484 30.3629 131.857 30.7843C132.229 31.203 132.418 31.7919 132.424 32.5508V33.4987ZM131.246 32.5698C131.246 32.0698 131.172 31.698 131.023 31.4543C130.874 31.2107 130.642 31.0888 130.328 31.0888C130.017 31.0888 129.787 31.2069 129.638 31.4429C129.489 31.6764 129.412 32.033 129.407 32.5127V33.4987C129.407 33.9835 129.482 34.3414 129.634 34.5723C129.786 34.8008 130.02 34.915 130.336 34.915C130.642 34.915 130.87 34.8033 131.019 34.5799C131.168 34.3541 131.244 34.0051 131.246 33.533V32.5698Z" fill="#2E2E2E"/>
<path d="M137.34 35.7716H136.171V33.3997H134.439V35.7716H133.266V30.2284H134.439V32.4708H136.171V30.2284H137.34V35.7716Z" fill="#2E2E2E"/>
<path d="M141.132 34.6371H139.531L139.22 35.7716H137.979L139.795 30.2284H140.868L142.696 35.7716H141.443L141.132 34.6371ZM139.787 33.7043H140.872L140.329 31.7284L139.787 33.7043Z" fill="#2E2E2E"/>
<path d="M147.389 30.2284V35.7716H146.212V31.1612H145.134L145.055 33.1256C145.023 33.7728 144.945 34.2868 144.823 34.6675C144.703 35.0457 144.526 35.3236 144.292 35.5013C144.061 35.6789 143.748 35.769 143.354 35.7716H143.067V34.8426L143.203 34.8312C143.448 34.8033 143.623 34.651 143.73 34.3744C143.839 34.0952 143.906 33.6028 143.933 32.8972L144.009 30.2284H147.389Z" fill="#2E2E2E"/>
<path d="M149.508 32.2195H150.203C150.791 32.2195 151.259 32.3794 151.607 32.6992C151.956 33.0165 152.13 33.4416 152.13 33.9746C152.13 34.5051 151.96 34.9353 151.619 35.2652C151.279 35.5926 150.828 35.7614 150.267 35.7716H148.331V30.2284H149.508V32.2195ZM149.508 33.1485V34.8426H150.219C150.447 34.8426 150.627 34.7614 150.757 34.599C150.89 34.434 150.957 34.2234 150.957 33.967C150.957 33.7259 150.892 33.5305 150.761 33.3807C150.634 33.2284 150.455 33.151 150.227 33.1485H149.508Z" fill="#2E2E2E"/>
<path d="M156.903 35.7716H155.734V33.3997H154.002V35.7716H152.829V30.2284H154.002V32.4708H155.734V30.2284H156.903V35.7716Z" fill="#2E2E2E"/>
<path d="M159.038 32.2195H159.733C160.321 32.2195 160.789 32.3794 161.138 32.6992C161.486 33.0165 161.66 33.4416 161.66 33.9746C161.66 34.5051 161.49 34.9353 161.149 35.2652C160.809 35.5926 160.358 35.7614 159.797 35.7716H157.861V30.2284H159.038V32.2195ZM163.137 35.7716H161.964V30.2284H163.137V35.7716ZM159.038 33.1485V34.8426H159.749C159.978 34.8426 160.157 34.7614 160.287 34.599C160.42 34.434 160.487 34.2234 160.487 33.967C160.487 33.7259 160.422 33.5305 160.291 33.3807C160.164 33.2284 159.985 33.151 159.757 33.1485H159.038Z" fill="#2E2E2E"/>
<path d="M165.974 32.132L166.757 30.2284H168.101L166.737 32.9772L168.133 35.7716H166.773L165.974 33.8338L165.18 35.7716H163.819L165.216 32.9772L163.847 30.2284H165.192L165.974 32.132Z" fill="#2E2E2E"/>
<path d="M171.554 33.9251C171.572 34.2551 171.644 34.5051 171.769 34.6751C171.897 34.8426 172.104 34.9264 172.392 34.9264C172.698 34.9264 172.917 34.8046 173.05 34.5609C173.186 34.3147 173.263 33.9505 173.282 33.4683H171.865V32.5355H173.278C173.256 32.0457 173.171 31.6815 173.022 31.4429C172.873 31.2043 172.658 31.085 172.376 31.085C172.102 31.085 171.899 31.1637 171.769 31.3211C171.641 31.4784 171.568 31.7437 171.55 32.1168H170.372C170.425 31.4975 170.626 31.0152 170.975 30.6701C171.323 30.3249 171.79 30.1523 172.376 30.1523C173.009 30.1523 173.514 30.3947 173.892 30.8794C174.27 31.3642 174.459 32.0241 174.459 32.8591V33.1865C174.459 34.0089 174.274 34.6586 173.904 35.1358C173.537 35.6104 173.033 35.8477 172.392 35.8477C171.793 35.8477 171.317 35.6751 170.963 35.3299C170.609 34.9822 170.415 34.514 170.38 33.9251H171.554Z" fill="#2E2E2E"/>
<path d="M176.941 32.132L177.723 30.2284H179.068L177.703 32.9772L179.1 35.7716H177.739L176.941 33.8338L176.147 35.7716H174.786L176.183 32.9772L174.814 30.2284H176.159L176.941 32.132Z" fill="#2E2E2E"/>
<path d="M183.682 33.4987C183.682 34.2424 183.497 34.8198 183.127 35.231C182.76 35.6421 182.249 35.8477 181.594 35.8477C180.943 35.8477 180.43 35.6447 180.058 35.2386C179.686 34.8299 179.497 34.2589 179.491 33.5254V32.5774C179.491 31.816 179.676 31.2221 180.046 30.7957C180.416 30.3668 180.929 30.1523 181.586 30.1523C182.233 30.1523 182.742 30.3629 183.115 30.7843C183.487 31.203 183.676 31.7919 183.682 32.5508V33.4987ZM182.504 32.5698C182.504 32.0698 182.43 31.698 182.281 31.4543C182.132 31.2107 181.9 31.0888 181.586 31.0888C181.275 31.0888 181.045 31.2069 180.896 31.4429C180.747 31.6764 180.67 32.033 180.665 32.5127V33.4987C180.665 33.9835 180.74 34.3414 180.892 34.5723C181.044 34.8008 181.278 34.915 181.594 34.915C181.9 34.915 182.128 34.8033 182.277 34.5799C182.426 34.3541 182.502 34.0051 182.504 33.533V32.5698Z" fill="#2E2E2E"/>
<path d="M188.471 30.2284V35.7716H187.293V31.1612H186.216L186.136 33.1256C186.104 33.7728 186.027 34.2868 185.905 34.6675C185.785 35.0457 185.608 35.3236 185.374 35.5013C185.142 35.6789 184.83 35.769 184.436 35.7716H184.149V34.8426L184.284 34.8312C184.529 34.8033 184.705 34.651 184.811 34.3744C184.92 34.0952 184.988 33.6028 185.015 32.8972L185.09 30.2284H188.471Z" fill="#2E2E2E"/>
<path d="M193.507 33.4987C193.507 34.2424 193.322 34.8198 192.952 35.231C192.585 35.6421 192.074 35.8477 191.42 35.8477C190.768 35.8477 190.256 35.6447 189.883 35.2386C189.511 34.8299 189.322 34.2589 189.317 33.5254V32.5774C189.317 31.816 189.502 31.2221 189.871 30.7957C190.241 30.3668 190.755 30.1523 191.412 30.1523C192.058 30.1523 192.568 30.3629 192.94 30.7843C193.313 31.203 193.502 31.7919 193.507 32.5508V33.4987ZM192.33 32.5698C192.33 32.0698 192.255 31.698 192.106 31.4543C191.957 31.2107 191.726 31.0888 191.412 31.0888C191.101 31.0888 190.87 31.2069 190.721 31.4429C190.572 31.6764 190.495 32.033 190.49 32.5127V33.4987C190.49 33.9835 190.566 34.3414 190.717 34.5723C190.869 34.8008 191.103 34.915 191.42 34.915C191.726 34.915 191.953 34.8033 192.102 34.5799C192.251 34.3541 192.327 34.0051 192.33 33.533V32.5698Z" fill="#2E2E2E"/>
<path d="M197.769 31.1612H196.333V35.7716H195.155V31.1612H193.742V30.2284H197.769V31.1612Z" fill="#2E2E2E"/>
<path d="M202.423 33.4987C202.423 34.2424 202.238 34.8198 201.868 35.231C201.501 35.6421 200.99 35.8477 200.335 35.8477C199.683 35.8477 199.171 35.6447 198.799 35.2386C198.426 34.8299 198.237 34.2589 198.232 33.5254V32.5774C198.232 31.816 198.417 31.2221 198.787 30.7957C199.157 30.3668 199.67 30.1523 200.327 30.1523C200.974 30.1523 201.483 30.3629 201.856 30.7843C202.228 31.203 202.417 31.7919 202.423 32.5508V33.4987ZM201.245 32.5698C201.245 32.0698 201.171 31.698 201.022 31.4543C200.873 31.2107 200.641 31.0888 200.327 31.0888C200.016 31.0888 199.786 31.2069 199.637 31.4429C199.488 31.6764 199.411 32.033 199.405 32.5127V33.4987C199.405 33.9835 199.481 34.3414 199.633 34.5723C199.785 34.8008 200.019 34.915 200.335 34.915C200.641 34.915 200.869 34.8033 201.018 34.5799C201.167 34.3541 201.243 34.0051 201.245 33.533V32.5698Z" fill="#2E2E2E"/>
<path d="M203.265 35.7716V30.2284H205.06C205.667 30.2284 206.127 30.3579 206.441 30.6168C206.758 30.8731 206.916 31.25 206.916 31.7475C206.916 32.0292 206.851 32.2716 206.721 32.4746C206.59 32.6777 206.412 32.8261 206.186 32.9201C206.447 32.9911 206.647 33.1345 206.788 33.3503C206.929 33.5635 207 33.8274 207 34.1421C207 34.6802 206.844 35.0863 206.533 35.3604C206.224 35.6345 205.776 35.7716 205.188 35.7716H203.265ZM204.438 33.3617V34.8426H205.188C205.398 34.8426 205.558 34.7805 205.667 34.6561C205.776 34.5317 205.831 34.3553 205.831 34.1269C205.831 33.6294 205.642 33.3744 205.264 33.3617H204.438ZM204.438 32.547H205.048C205.509 32.547 205.739 32.3198 205.739 31.8655C205.739 31.6142 205.686 31.434 205.579 31.3249C205.473 31.2157 205.3 31.1612 205.06 31.1612H204.438V32.547Z" fill="#2E2E2E"/>
<path d="M0.458132 -4.57764e-05H8.46457V0.930498H0.919556V8.56534H0V0.0164105L0.458132 -4.57764e-05ZM0.919556 31.1913V38.8327H8.46457V39.7665H0.016223V31.1913H0.919556ZM30.8641 -4.57764e-05H39.3124V8.54889H38.3896V0.914042H30.8641V-4.57764e-05ZM39.3384 31.1913V39.7665H30.8641V38.8327H38.4156V31.1913H39.3384Z" fill="#2E2E2E"/>
<path d="M30.2441 35.3766C30.2435 34.7345 30.3683 34.0986 30.6114 33.5055C30.8546 32.9125 31.2112 32.3739 31.6609 31.9208C32.1064 31.4644 32.6372 31.1023 33.2224 30.8556C33.8076 30.6089 34.4355 30.4826 35.0694 30.484V31.8814C34.6173 31.8805 34.1695 31.9708 33.7522 32.1469C33.3349 32.3231 32.9565 32.5815 32.6389 32.9073C32.3169 33.2305 32.0615 33.6152 31.8874 34.0391C31.7134 34.463 31.6243 34.9176 31.6251 35.3766H30.2441Z" fill="#287B2D"/>
<path d="M28.1904 35.3766C28.1886 34.4607 28.3656 33.5535 28.7114 32.7071C29.0571 31.8607 29.5647 31.0918 30.2051 30.4445C30.8443 29.7958 31.6041 29.2814 32.4406 28.931C33.2771 28.5806 34.1738 28.401 35.0791 28.4026V29.8001C34.354 29.7991 33.6358 29.944 32.9665 30.2262C32.2971 30.5085 31.6899 30.9224 31.1799 31.4441C30.6654 31.9609 30.2569 32.5755 29.9781 33.2527C29.6993 33.9299 29.5556 34.6561 29.5552 35.3897L28.1904 35.3766Z" fill="#287B2D"/>
<path d="M26.1338 35.3766C26.1307 34.1905 26.3586 33.0155 26.8047 31.9187C27.2507 30.8219 27.9061 29.8249 28.7333 28.9846C29.5615 28.1418 30.5463 27.4732 31.631 27.0172C32.7156 26.5612 33.8788 26.327 35.0533 26.3279V27.7253C34.0606 27.7249 33.0776 27.9231 32.1608 28.3085C31.244 28.6939 30.4116 29.2589 29.7114 29.971C29.0093 30.6803 28.4526 31.523 28.0734 32.4506C27.6943 33.3783 27.5 34.3727 27.5018 35.3766H26.1338Z" fill="#287B2D"/>
<path d="M24.0801 35.3766C24.0791 33.916 24.3627 32.4695 24.9147 31.12C25.4667 29.7704 26.2762 28.5442 27.297 27.5115C28.3161 26.4763 29.5274 25.6551 30.8613 25.0954C32.1953 24.5356 33.6254 24.2482 35.0695 24.2498V25.6472C33.808 25.645 32.5586 25.8958 31.3935 26.3851C30.2284 26.8744 29.1707 27.5925 28.2815 28.498C27.3869 29.4001 26.6772 30.4721 26.1932 31.6526C25.7092 32.833 25.4603 34.0986 25.4611 35.3766H24.0801Z" fill="#287B2D"/>
<path d="M22.0273 35.3766C22.0261 33.642 22.3634 31.9242 23.0196 30.3218C23.6759 28.7193 24.6384 27.2637 25.8519 26.0385C27.0606 24.8106 28.4973 23.8366 30.0794 23.1725C31.6614 22.5083 33.3575 22.1671 35.0703 22.1685V23.5692C33.5389 23.5669 32.0223 23.8711 30.6075 24.4642C29.1927 25.0572 27.9078 25.9275 26.8267 27.0249C25.7416 28.1207 24.881 29.4226 24.2944 30.8558C23.7078 32.289 23.4067 33.8253 23.4083 35.3766H22.0273Z" fill="#287B2D"/>
<path d="M19.9727 35.3766C19.9684 33.3699 20.357 31.3822 21.1161 29.5283C21.8751 27.6744 22.9896 25.991 24.3951 24.5753C25.7947 23.1532 27.4581 22.0249 29.2899 21.2553C31.1217 20.4856 33.0858 20.0898 35.0692 20.0904V21.4911C33.2672 21.4894 31.4826 21.8481 29.818 22.5467C28.1534 23.2453 26.6418 24.27 25.3699 25.5617C24.0947 26.8495 23.0835 28.3795 22.3943 30.0638C21.7051 31.7481 21.3515 33.5536 21.3537 35.3766H19.9727Z" fill="#287B2D"/>
<path d="M17.92 35.3766C17.9158 33.0968 18.3572 30.8387 19.2188 28.7322C20.0804 26.6257 21.3451 24.7123 22.9402 23.1023C24.5313 21.4876 26.422 20.2067 28.5036 19.3333C30.5851 18.4598 32.8167 18.0109 35.0701 18.0124V19.4098C32.9979 19.4081 30.9457 19.8205 29.0314 20.6235C27.1171 21.4264 25.3784 22.604 23.915 24.0887C22.4504 25.571 21.289 27.3309 20.4973 29.2678C19.7056 31.2047 19.299 33.2805 19.3009 35.3766H17.92Z" fill="#287B2D"/>
<path d="M15.8653 35.3766C15.8602 32.8227 16.3549 30.293 17.3209 27.9335C18.2868 25.574 19.7048 23.4314 21.4932 21.6292C23.2734 19.8214 25.3893 18.3875 27.7191 17.4102C30.049 16.4328 32.5469 15.9313 35.069 15.9343V17.3318C32.7279 17.3292 30.4094 17.795 28.2469 18.7024C26.0843 19.6097 24.1204 20.9408 22.468 22.6189C20.8101 24.2926 19.4953 26.2812 18.5992 28.4706C17.7031 30.66 17.2433 33.0069 17.2463 35.3766H15.8653Z" fill="#287B2D"/>
<path d="M13.8125 35.3766C13.8078 32.5496 14.3554 29.7495 15.4238 27.1375C16.4923 24.5254 18.0605 22.1528 20.0383 20.1562C22.0113 18.1573 24.3545 16.572 26.9339 15.4909C29.5132 14.4099 32.278 13.8544 35.0699 13.8563V15.2537C32.457 15.254 29.8699 15.777 27.4575 16.7927C25.0451 17.8085 22.855 19.2968 21.0131 21.1722C19.1655 23.0381 17.7003 25.2548 16.7016 27.6952C15.7029 30.1356 15.1904 32.7516 15.1935 35.393L13.8125 35.3766Z" fill="#2E2E2E"/>
<path d="M11.7588 35.3765C11.7542 32.2779 12.3547 29.2089 13.5257 26.3458C14.6967 23.4828 16.4152 20.882 18.5825 18.693C20.7461 16.5004 23.3163 14.7617 26.1456 13.5768C28.975 12.3918 32.0077 11.784 35.0698 11.7881V13.1855C32.188 13.1832 29.3342 13.7569 26.6722 14.8735C24.0101 15.9902 21.5922 17.6279 19.5573 19.6926C17.5202 21.7529 15.9048 24.1996 14.8035 26.8926C13.7023 29.5856 13.137 32.472 13.1398 35.3864L11.7588 35.3765Z" fill="#2E2E2E"/>
<path d="M9.71781 35.3766C9.71202 32.0035 10.366 28.6626 11.6419 25.5465C12.9179 22.4303 14.7907 19.6004 17.1524 17.22C19.5054 14.834 22.3008 12.9415 25.3782 11.6511C28.4556 10.3607 31.7544 9.69774 35.0856 9.7002V11.0976C31.9353 11.0948 28.8156 11.7216 25.9054 12.9421C22.9952 14.1625 20.3519 15.9527 18.1272 18.2097C15.8944 20.4603 14.1241 23.1359 12.9183 26.0823C11.7126 29.0287 11.0953 32.1876 11.102 35.3766H9.71781Z" fill="#2E2E2E"/>
<path d="M7.64847 35.3766C7.64281 31.7304 8.34957 28.1191 9.72807 24.7503C11.1066 21.3815 13.1296 18.3217 15.6809 15.7469C18.2255 13.1684 21.248 11.1234 24.5752 9.72915C27.9023 8.33493 31.4687 7.6189 35.0699 7.62214V9.01956C31.6501 9.01584 28.2632 9.69566 25.1038 11.02C21.9443 12.3443 19.0745 14.287 16.659 16.7366C14.2357 19.1813 12.3141 22.0867 11.0047 25.2857C9.69532 28.4847 9.02402 31.9141 9.02945 35.3766H7.64847Z" fill="#2E2E2E"/>
<path d="M5.59475 35.3766C5.58943 31.4588 6.3491 27.5786 7.83016 23.9588C9.31122 20.3391 11.4845 17.0511 14.225 14.2837C16.9591 11.5089 20.2081 9.30804 23.7853 7.80765C27.3625 6.30726 31.1974 5.5369 35.0697 5.54082V6.94153C31.3791 6.93724 27.724 7.67112 24.3146 9.101C20.9052 10.5309 17.8087 12.6286 15.2031 15.2734C12.5901 17.9103 10.518 21.0438 9.10603 24.4939C7.69406 27.9439 6.97011 31.6424 6.97573 35.3766H5.59475Z" fill="#2E2E2E"/>
<path d="M4.39908 27.962C5.74268 22.2172 8.64507 16.9662 12.7792 12.8008C16.7249 8.80316 21.6485 5.93702 27.0471 4.49518H35.0633V4.85031C31.1042 4.84565 27.1832 5.63278 23.5256 7.16648C19.8681 8.70018 16.5462 10.9502 13.7508 13.7872C10.9449 16.6165 8.71981 19.9794 7.20352 23.6824C5.68724 27.3853 4.90971 31.3552 4.91572 35.3634H4.39258L4.39908 27.962Z" fill="#2E2E2E"/>
<path d="M4.39844 21.5141C6.07085 17.7164 8.41784 14.2615 11.3228 11.3212C14.1257 8.48642 17.4002 6.17357 20.9962 4.48865H24.707C20.0369 6.10436 15.7934 8.77876 12.3009 12.3076C8.66893 15.9766 5.95908 20.4732 4.39844 25.4203V21.5141Z" fill="#2E2E2E"/>
<path d="M4.39844 16.9931C5.91605 14.3924 7.7536 11.9971 9.86711 9.86459C11.897 7.80735 14.164 6.00458 16.6193 4.49518H19.456C16.2764 6.14756 13.3712 8.29199 10.8452 10.851C8.22529 13.5007 6.04804 16.5634 4.39844 19.9194V16.9931Z" fill="#2E2E2E"/>
<path d="M4.39844 13.1987C5.60245 11.484 6.94819 9.87581 8.42115 8.39155C9.81547 6.97388 11.3193 5.67094 12.9183 4.49518H15.3585C13.2095 5.90836 11.2122 7.54486 9.39922 9.37797C7.50496 11.2895 5.82763 13.4092 4.39844 15.6976V13.1987Z" fill="#2E2E2E"/>
<path d="M4.39908 9.78897C5.20817 8.80256 6.06601 7.81611 6.96933 6.91847C7.80442 6.08002 8.672 5.27445 9.56883 4.49518H11.7784C10.4228 5.54557 9.13653 6.68457 7.92788 7.90489C6.651 9.19826 5.46633 10.5816 4.38281 12.0446L4.39908 9.78897Z" fill="#2E2E2E"/>
<path d="M4.39844 6.62912C4.75587 6.22798 5.13281 5.83672 5.51299 5.4553C5.83792 5.1265 6.16286 4.79768 6.4878 4.49518H8.55114C7.84277 5.11991 7.15067 5.77096 6.4878 6.44172C5.75994 7.17824 5.06131 7.94436 4.39844 8.74335V6.62912Z" fill="#2E2E2E"/>
<path d="M4.39908 4.49518H5.51363L5.04245 4.96868C4.82149 5.19227 4.61029 5.40928 4.39258 5.62629L4.39908 4.49518Z" fill="#2E2E2E"/>
<path d="M32.2979 35.3766C32.3026 34.6373 32.593 33.9292 33.1069 33.4037C33.6235 32.8783 34.3242 32.5805 35.0566 32.5751V33.9726C34.6909 33.9749 34.3408 34.1225 34.0818 34.3836C33.8226 34.6449 33.6765 34.9997 33.6756 35.37L32.2979 35.3766Z" fill="#287B2D"/>
<path d="M62.8325 25.8215C61.3489 25.839 59.8729 25.6056 58.4654 25.131C57.2585 24.7241 56.1655 24.0307 55.2777 23.1089C54.4591 22.2155 53.9514 21.0759 53.8318 19.8636C53.822 19.7781 53.8319 19.6915 53.8606 19.6105C53.8894 19.5295 53.9362 19.4563 53.9975 19.3967C54.1313 19.2809 54.3024 19.2189 54.4784 19.2224H58.4393C58.6309 19.2076 58.8226 19.2486 58.9918 19.3408C59.1344 19.4539 59.2584 19.5893 59.3589 19.7419C59.5811 20.2586 59.9709 20.6831 60.4637 20.9453C61.1623 21.2906 61.9358 21.4512 62.7123 21.4123C63.8918 21.4123 64.8114 21.0473 65.4645 20.3305C66.1176 19.6137 66.4588 18.5878 66.4588 17.2726V16.7794H60.5482C60.4432 16.7821 60.339 16.7608 60.2433 16.7169C60.1476 16.6731 60.063 16.6079 59.9958 16.5262C59.8549 16.3688 59.7782 16.1632 59.7813 15.9508V13.4782C59.777 13.2627 59.8537 13.0535 59.9958 12.8929C60.063 12.8112 60.1476 12.746 60.2433 12.7022C60.339 12.6583 60.4432 12.637 60.5482 12.6397H66.4588V12.1827C66.4588 10.7589 66.1339 9.71334 65.484 9.05244C64.8341 8.39154 63.908 8.04632 62.7123 8.04632C61.9328 8.00646 61.1569 8.17666 60.4637 8.53952C59.9875 8.79477 59.6209 9.21847 59.4337 9.7298C59.3596 9.89681 59.2484 10.0442 59.1087 10.1606C58.9467 10.2529 58.7612 10.2941 58.5758 10.2789H54.5759C54.3946 10.281 54.2198 10.2114 54.0885 10.0849C54.0232 10.0241 53.9727 9.94883 53.9412 9.86494C53.9096 9.78105 53.8977 9.69089 53.9065 9.60156C54.0298 8.36273 54.5423 7.19651 55.3687 6.27405C56.2354 5.35419 57.3155 4.66813 58.5109 4.27822C59.9 3.82344 61.3531 3.60132 62.813 3.62061C64.4414 3.58934 66.0576 3.90993 67.5538 4.56099C68.8966 5.16693 70.0286 6.16693 70.8032 7.43145C71.6069 8.71598 72.0488 10.36 72.1289 12.3635C72.1484 13.0211 72.1647 13.5571 72.1647 14.0076V15.3951C72.1647 15.8521 72.1647 16.4012 72.1289 17.0391C72.0488 19.0711 71.6155 20.736 70.8292 22.0337C70.0805 23.3064 68.9518 24.3058 67.6058 24.8877C66.0845 25.5284 64.4474 25.8398 62.8 25.8018L62.8325 25.8215ZM74.631 25.5124C74.5433 25.5134 74.4564 25.4964 74.3754 25.4625C74.2945 25.4286 74.2211 25.3785 74.1598 25.3152C74.0416 25.1965 73.973 25.0364 73.9681 24.868C73.9681 24.8057 73.9769 24.7437 73.9941 24.6838C74.0115 24.6151 74.0437 24.5512 74.0883 24.4964L80.7365 14.4942L74.5627 4.92267C74.5014 4.81221 74.4689 4.68771 74.4685 4.56099C74.4668 4.4775 74.4824 4.39457 74.5143 4.31756C74.5462 4.24054 74.5937 4.17116 74.6537 4.11382C74.7089 4.04739 74.7782 3.99429 74.8563 3.95845C74.9345 3.92261 75.0196 3.90492 75.1054 3.90667H79.5375C79.7916 3.88917 80.0423 3.97294 80.2361 4.14011C80.3705 4.26729 80.4914 4.40836 80.5968 4.56099L84.2231 10.1507L87.9176 4.56099C88.0256 4.40845 88.1486 4.26742 88.2848 4.14011C88.4794 3.97212 88.7315 3.88829 88.9866 3.90667H93.2108C93.2949 3.90661 93.3781 3.92508 93.4544 3.96086C93.5307 3.99663 93.5984 4.04885 93.6528 4.11382C93.7141 4.17066 93.763 4.23975 93.7965 4.31672C93.8301 4.39369 93.8475 4.47686 93.8477 4.56099C93.8522 4.69231 93.8095 4.82082 93.7275 4.92267L87.5537 14.458L94.2701 24.4866C94.3066 24.5433 94.331 24.6071 94.3416 24.674C94.3467 24.7352 94.3467 24.7969 94.3416 24.8581C94.3411 25.0243 94.2784 25.184 94.1661 25.3053C94.1077 25.3689 94.0368 25.4193 93.9578 25.4533C93.8789 25.4873 93.7938 25.5041 93.708 25.5026H89.1589C88.8989 25.5198 88.6422 25.4363 88.4408 25.2691C88.3032 25.1632 88.1845 25.0341 88.0898 24.8877L84.0639 18.9692L80.0671 24.8877C79.9757 25.0286 79.8664 25.1568 79.7422 25.2691C79.5484 25.4363 79.2977 25.5201 79.0436 25.5026L74.631 25.5124ZM105.532 25.8215C103.862 25.8586 102.202 25.544 100.658 24.8976C99.3222 24.323 98.1934 23.346 97.4253 22.0994C96.6519 20.8598 96.2262 19.2948 96.145 17.4304C96.1255 16.5459 96.1158 15.6516 96.1158 14.7572C96.1158 13.8629 96.1158 12.9751 96.145 12.0906C96.1689 10.4432 96.6169 8.83048 97.4447 7.41171C98.2188 6.15143 99.3515 5.15766 100.694 4.56099C102.218 3.89141 103.868 3.56385 105.529 3.60087C107.194 3.56084 108.847 3.8885 110.374 4.56099C111.713 5.1632 112.844 6.15569 113.623 7.41171C114.467 8.82348 114.917 10.4407 114.923 12.0906C114.962 12.9751 114.978 13.8629 114.978 14.7572C114.978 15.6516 114.978 16.5459 114.923 17.4304C114.861 19.2948 114.436 20.8598 113.653 22.0994C112.877 23.3461 111.743 24.3226 110.403 24.8976C108.86 25.5449 107.2 25.8596 105.529 25.8215H105.532ZM105.532 21.3728C106.014 21.3931 106.495 21.3164 106.948 21.147C107.4 20.9777 107.815 20.7192 108.168 20.3864C108.85 19.7288 109.207 18.6799 109.253 17.2463C109.292 16.3421 109.308 15.4839 109.308 14.6816C109.308 13.8793 109.308 13.0376 109.253 12.1827C109.244 11.3642 109.062 10.5571 108.72 9.81529C108.434 9.24312 107.98 8.77453 107.42 8.47378C106.835 8.17865 106.187 8.03194 105.532 8.04632C104.887 8.03292 104.247 8.17969 103.671 8.47378C103.108 8.77646 102.649 9.24407 102.355 9.81529C102 10.5531 101.814 11.3623 101.812 12.1827C101.783 13.0409 101.776 13.8793 101.776 14.6816C101.776 15.4839 101.776 16.3256 101.812 17.2463C101.867 18.6799 102.244 19.7321 102.926 20.3864C103.274 20.7164 103.682 20.9735 104.129 21.1428C104.575 21.3121 105.05 21.3903 105.526 21.3728H105.532ZM132.544 25.5124C132.443 25.5166 132.341 25.4978 132.247 25.4575C132.153 25.4171 132.069 25.3561 132.002 25.279C131.932 25.2086 131.877 25.1244 131.841 25.0316C131.804 24.9389 131.787 24.8395 131.791 24.7398V8.84858H126.114V11.6533C126.135 13.774 126.018 15.8938 125.766 17.9993C125.606 19.4889 125.181 20.9369 124.512 22.2737C123.947 23.3355 123.06 24.1852 121.981 24.697C120.663 25.2593 119.245 25.5413 117.815 25.5256C117.708 25.5271 117.602 25.5072 117.503 25.4672C117.404 25.4271 117.313 25.3676 117.237 25.2921C117.16 25.2196 117.098 25.1315 117.057 25.0335C117.015 24.9355 116.995 24.8299 116.996 24.7233V21.4813C116.996 21.0341 117.246 20.7612 117.753 20.679C118.324 20.5786 118.836 20.2653 119.19 19.8011C119.626 19.2101 119.948 18.5406 120.138 17.8283C120.404 16.8497 120.577 15.8478 120.655 14.8362C120.756 13.6689 120.811 12.3734 120.811 10.9562V4.70894C120.808 4.6049 120.826 4.5013 120.864 4.40458C120.902 4.30785 120.959 4.22009 121.032 4.14669C121.189 4.00479 121.393 3.9284 121.604 3.93296H136.486C136.693 3.93025 136.894 4.00655 137.048 4.14669C137.122 4.2196 137.181 4.30706 137.221 4.40373C137.26 4.50041 137.28 4.60427 137.279 4.70894V24.766C137.278 24.867 137.258 24.9669 137.218 25.0596C137.178 25.1523 137.121 25.2359 137.048 25.3053C136.975 25.3812 136.888 25.4411 136.791 25.4813C136.694 25.5215 136.59 25.541 136.486 25.5387L132.544 25.5124ZM150.237 25.8215C148.567 25.8586 146.907 25.544 145.363 24.8976C144.022 24.3248 142.887 23.3478 142.114 22.0994C141.34 20.8598 140.918 19.2948 140.834 17.4304C140.814 16.5459 140.808 15.6516 140.808 14.7572C140.808 13.8629 140.808 12.9751 140.834 12.0906C140.859 10.4434 141.307 8.83113 142.133 7.41171C142.907 6.15116 144.04 5.15731 145.383 4.56099C146.907 3.89141 148.556 3.56385 150.218 3.60087C151.882 3.56084 153.536 3.8885 155.063 4.56099C156.41 5.15987 157.549 6.15259 158.335 7.41171C159.167 8.82733 159.61 10.4432 159.615 12.0906C159.65 12.9674 159.668 13.8563 159.67 14.7572C159.67 15.6516 159.651 16.5459 159.615 17.4304C159.55 19.2948 159.127 20.8598 158.344 22.0994C157.568 23.3451 156.434 24.3213 155.095 24.8976C153.551 25.5438 151.891 25.8584 150.221 25.8215H150.237ZM150.237 21.3728C150.719 21.3931 151.2 21.3164 151.653 21.147C152.105 20.9777 152.52 20.7192 152.872 20.3864C153.555 19.7288 153.912 18.6799 153.961 17.2463C153.997 16.3421 154.016 15.4839 154.016 14.6816C154.016 13.8793 153.997 13.0376 153.961 12.1827C153.951 11.3639 153.768 10.5568 153.425 9.81529C153.142 9.24079 152.687 8.77132 152.125 8.47378C151.539 8.1775 150.889 8.03074 150.234 8.04632C149.589 8.03412 148.951 8.18084 148.375 8.47378C147.817 8.77642 147.364 9.2445 147.076 9.81529C146.714 10.5511 146.525 11.3611 146.523 12.1827C146.523 13.0409 146.497 13.8793 146.497 14.6816C146.497 15.4839 146.497 16.3256 146.523 17.2463C146.588 18.6799 146.955 19.7321 147.638 20.3864C147.985 20.7164 148.394 20.9735 148.84 21.1428C149.286 21.3121 149.761 21.3903 150.237 21.3728ZM168.687 25.5124C168.585 25.5166 168.484 25.4978 168.39 25.4575C168.296 25.4171 168.212 25.3561 168.144 25.279C168.074 25.2086 168.018 25.1247 167.98 25.032C167.942 24.9394 167.923 24.84 167.923 24.7398V8.74338H162.497C162.394 8.74697 162.291 8.72796 162.196 8.68767C162.1 8.64738 162.015 8.58677 161.945 8.50994C161.808 8.3644 161.733 8.17125 161.733 7.9707V4.68265C161.73 4.47472 161.805 4.27334 161.945 4.12036C162.094 3.9794 162.293 3.90281 162.497 3.90667H178.903C179.005 3.90297 179.106 3.91997 179.201 3.95668C179.296 3.9934 179.382 4.04906 179.455 4.12036C179.595 4.27334 179.67 4.47472 179.667 4.68265V7.9707C179.667 8.17125 179.592 8.3644 179.455 8.50994C179.387 8.5884 179.301 8.65014 179.206 8.69056C179.11 8.73098 179.007 8.74903 178.903 8.74338H173.486V24.7299C173.489 24.9307 173.413 25.1243 173.275 25.2691C173.206 25.3465 173.12 25.4075 173.025 25.4478C172.929 25.4881 172.826 25.5068 172.723 25.5026L168.687 25.5124ZM183.205 25.5124C183.103 25.5162 183.001 25.4972 182.907 25.4569C182.812 25.4166 182.728 25.3558 182.659 25.279C182.59 25.2082 182.536 25.1239 182.499 25.0312C182.463 24.9385 182.446 24.8394 182.448 24.7398V4.68265C182.444 4.57936 182.461 4.47628 182.497 4.37965C182.533 4.28302 182.588 4.19482 182.659 4.12036C182.732 4.04986 182.817 3.99466 182.911 3.95797C183.005 3.92127 183.105 3.90385 183.205 3.90667H187.137C187.347 3.90211 187.552 3.97846 187.709 4.12036C187.783 4.19373 187.841 4.28131 187.88 4.37788C187.92 4.47446 187.94 4.57809 187.94 4.68265V11.3179H190.802C193.402 11.3179 195.425 11.8988 196.872 13.0606C198.308 14.2246 199.036 15.9771 199.036 18.3215C199.064 19.6413 198.736 20.9439 198.087 22.0896C197.436 23.2004 196.462 24.0819 195.299 24.6148C193.885 25.2492 192.349 25.5548 190.802 25.5091L183.205 25.5124ZM187.94 21.238H190.682C191.054 21.2635 191.426 21.203 191.771 21.0612C192.116 20.9193 192.425 20.6998 192.674 20.4193C193.147 19.8338 193.392 19.0935 193.363 18.3379C193.363 17.4074 193.126 16.7169 192.645 16.2697C192.107 15.7948 191.408 15.5506 190.695 15.5891H187.953L187.94 21.238ZM202.113 25.5124C202.011 25.5166 201.91 25.4978 201.816 25.4575C201.722 25.4171 201.638 25.3561 201.571 25.279C201.5 25.2086 201.444 25.1247 201.406 25.032C201.368 24.9394 201.349 24.84 201.35 24.7398V4.68265C201.347 4.57871 201.366 4.47534 201.404 4.37873C201.441 4.28212 201.498 4.19422 201.571 4.12036C201.642 4.04965 201.727 3.99429 201.82 3.95757C201.914 3.92084 202.013 3.90355 202.113 3.90667H206.204C206.412 3.90298 206.613 3.97937 206.766 4.12036C206.842 4.19229 206.901 4.27961 206.941 4.37652C206.981 4.47343 207 4.57776 206.997 4.68265V24.7398C206.998 24.841 206.978 24.9414 206.939 25.0343C206.899 25.1272 206.84 25.2106 206.766 25.279C206.694 25.3554 206.607 25.4156 206.51 25.4558C206.413 25.496 206.309 25.5153 206.204 25.5124H202.113Z" fill="#2E2E2E"/>
</svg>
